<?xml version="1.0" encoding="UTF-8"?>
<svg id="Calque_2" data-name="Calque 2" xmlns="http://www.w3.org/2000/svg" viewBox="0 0 384 352.71">
  <g id="Calque_1-2" data-name="Calque 1">
    <g>
      <path d="M0,136.68c9.71-2.73,19.44-5.37,29.12-8.22,25.24-7.43,50.61-14.48,75.61-22.65,11.3-3.69,21.89-9.58,32.71-14.65,2.06-.97,3.29-1.26,5.12,.53,56.71,55.83,113.49,111.6,170.25,167.39,.44,.43,.83,.91,1.93,2.12-7.19,10.42-14.08,21.24-21.8,31.43-16.96,22.39-37.4,41.2-60.59,57.03-1.29,.88-2.4,2.03-3.6,3.05h-33c-.97-.2-1.93-.52-2.91-.59-22.49-1.49-44.17-6.58-64.94-15.25-8.81-3.68-17.31-8.11-25.94-12.2,47.75-19.02,88.72-45.41,114.76-91.21-8.42-5.74-17.05-11.63-26-17.74-2.66,3.89-5.19,7.58-7.7,11.28-15.28,22.5-35.26,39.53-59.41,52.02-16.35,8.45-33.36,15.16-50.6,21.42-2.29,.83-3.73,.43-5.27-1.2-8.1-8.66-16.51-17.05-24.28-25.99-4.86-5.59-8.8-11.99-13.55-18.58,40.68-5.22,74.27-22.91,103.55-50.42-7.95-7.46-15.57-14.59-23.38-21.92-.01,.01-.86,.72-1.66,1.47-10.96,10.19-23.21,18.46-36.49,25.37-17.25,8.97-35.89,12.71-54.9,15.1-.98,.12-2.88-1.39-3.2-2.47-3.75-12.79-7.6-25.57-10.72-38.52-1.72-7.11-2.1-14.54-3.09-21.82,0-8.25,0-16.5,0-24.75Z"/>
      <path d="M384,24.16c-.69,.49-1.46,.89-2.05,1.48-25.73,25.71-51.45,51.43-77.17,77.16-.35,.35-.66,.74-2.04,2.26,1.2,.67,2.61,1.12,3.57,2.04,8.3,7.96,16.45,16.08,24.78,24,7.81,7.43,11.45,16.33,11.03,27.16-.89,23.52-5.11,46.37-12.84,68.59-.24,.69-.58,1.34-1.06,2.45-53.4-52.48-106.57-104.73-159.92-157.16,1.06-.86,1.8-1.47,2.56-2.07,9.92-7.79,20.01-15.38,29.73-23.41,14.44-11.92,31.77-11.61,45.29,1.39,11.44,10.99,22.71,22.16,34.02,33.2,26.98-27,53.81-53.85,81.18-81.25,3.9,4.04,7.26,7.68,10.78,11.15,3.97,3.91,8.08,7.68,12.13,11.51v1.5Z"/>
    </g>
  </g>
</svg>