<?xml version="1.0" encoding="UTF-8"?>
<svg id="Calque_2" data-name="Calque 2" xmlns="http://www.w3.org/2000/svg" viewBox="0 0 299.81 109.82">
  <defs>
    <style>
      .cls-1 {
        fill: #03e45b;
      }

      .cls-2 {
        fill: #02e45a;
      }
    </style>
  </defs>
  <g id="Calque_1-2" data-name="Calque 1">
    <g>
      <path class="cls-1" d="M39.98,109.82h-15.99c-.32-.33-.59-.86-.98-.97-11.05-3.07-17.15-10.87-20.73-21.26C1.51,85.36,2.12,82.64,0,80.87,0,74.21,0,67.56,0,60.9c.34-.51,.91-.99,.98-1.53,.95-7.26,2.51-14.39,5.11-21.22C13.37,19.1,24.19,3.74,46.44,.75c.21-.03,.36-.49,.53-.75,2.67,0,5.33,0,8,0,.81,1.84,2.61,1.05,3.93,1.38,6.59,1.61,11.93,4.97,15.68,10.67,4.56,6.94,5.5,14.85,6.02,22.86,.17,2.66-1.4,3.42-3.77,3.4-4.99-.04-10.01-.3-14.98,.07-5.12,.39-7.8-.55-8.07-6.66-.31-6.97-6.37-9.3-12.32-5.46-3.17,2.04-5.26,5.07-7.03,8.29-4.2,7.63-7.1,15.74-8.46,24.34-.96,6.1-1.3,12.27,0,18.37,1.79,8.43,8.45,11.18,15.84,6.67,3.4-2.08,5.48-5.25,7.22-8.71,1.62-3.21,1.73-5.42-2.94-4.84-3.66,.46-4.83-1.17-3.93-4.67,1.07-4.18,2.08-8.38,2.93-12.61,.53-2.59,1.89-3.54,4.5-3.52,11.32,.08,22.64,.12,33.96-.01,3.38-.04,4.03,1.45,3.36,4.3-1.06,4.53-2.1,9.06-3.11,13.59-.42,1.89-1.59,3.15-3.47,2.83-4.28-.73-5.27,1.95-6.25,5.19-1.87,6.23-4.6,12.11-8.26,17.51-5.76,8.5-13.46,14.13-23.76,15.85-.78,.13-1.7,.02-2.08,.99Z"/>
      <path class="cls-1" d="M299.81,43.93c-2.01,1.88-1.49,4.58-2.17,6.87-6.55,22.17-24.56,35.4-48.91,35.78-3.82,.06-7.63,0-12.07,0,2.17,3.13,5.23,3.95,7.85,5.24,2.53,1.24,3.32,2.69,2.58,5.49-3.39,12.73,.3,10.63-12.95,10.83-3.49,.05-7-.16-10.48,.05-4.24,.26-4.08-1.96-3.36-5.01,3.25-13.9,6.38-27.82,9.6-41.73,4.27-18.43,8.68-36.82,12.78-55.29,.74-3.32,2.08-4.38,5.33-4.28,9.79,.29,19.65-.7,29.29,1.8,11.89,3.08,19.48,10.28,21.64,22.66,.1,.57,.58,1.07,.89,1.6v15.97Zm-48.55-19.02c-.13,.42-.27,.84-.4,1.26,2.59,1.36,5.14,2.81,7.79,4.05,2.37,1.12,3.45,2.25,2.61,5.31-1.95,7.02-3.4,14.19-4.82,21.34-.38,1.93-2.43,4.42-.45,5.81,1.91,1.34,4.55-.21,6.55-1.29,1.71-.92,3.36-2.24,4.59-3.75,6.18-7.53,7.87-16.36,6.6-25.75-.63-4.65-3.48-7.29-8.64-7.03-4.6,.23-9.21,.05-13.82,.05Z"/>
      <path class="cls-1" d="M129.92,0c.35,.3,.67,.79,1.06,.86,17.46,3.12,21.35,16.94,21.79,28.44,.11,2.84-.73,4.43-3.85,4.4-5.82-.07-11.63-.08-17.45,0-3.03,.05-3.86-1.51-4.21-4.26-.74-5.84-3.42-8.04-7.93-7.04-4.18,.92-6.31,4.85-5.15,9.8,.81,3.47,2.77,6.39,5.15,8.97,3.94,4.27,8.13,8.32,11.94,12.7,8.25,9.49,10.4,20.64,7.6,32.62-2.68,11.47-10.13,18.7-21.47,21.98-1.17,.34-2.78-.27-3.47,1.34h-15.99c-.49-.37-.92-.91-1.48-1.08-14.09-4.5-20.49-13.46-20.28-28.12,.05-3.35,1.07-4.87,4.62-4.72,4.64,.21,9.32,.28,13.95-.01,4.64-.29,7.71,.33,7.23,6.18-.25,3.06,1.67,5.38,5.1,5.61,3.31,.23,5.35-1.54,6.3-4.55,.99-3.15,.56-6.24-.93-9.17-2.15-4.2-5.44-7.51-8.73-10.8-4.35-4.36-8.55-8.84-11.57-14.26-10.16-18.23-2.31-39.84,16.89-46.72C111.01,1.48,113.36,1.76,114.93,0,119.93,0,124.92,0,129.92,0Z"/>
      <path class="cls-2" d="M216.89,55.26c0,15.96-.12,31.91,.09,47.86,.05,3.97-1.12,5.31-5.09,5.11-5.64-.29-11.32-.25-16.96-.01-3.54,.15-4.58-1.08-4.42-4.6,.39-8.77,.23-8.78-8.59-8.78-.67,0-1.34,.08-1.99-.01-9.03-1.34-16.4-.04-18.08,10.89-.35,2.29-2.32,2.46-4.28,2.45-6.16-.04-12.31,.03-18.47-.02-4.82-.05-5.21-.7-3.13-5.28,11.87-26.13,23.76-52.25,35.65-78.38,2.75-6.04,5.72-11.99,8.15-18.16,1.4-3.55,3.47-4.58,7.13-4.46,8.14,.26,16.31,.3,24.45,0,4.29-.16,5.8,1.03,5.73,5.54-.26,15.95-.1,31.91-.1,47.86h-.08Zm-23.27-24.31c-.33-.08-.66-.17-.99-.25-5.25,12.96-10.5,25.91-15.72,38.88-.28,.7-.57,1.57,.31,2.21,.63,.46,13.39,.53,13.82-.09,.44-.63,.74-1.47,.78-2.24,.63-12.83,1.21-25.67,1.8-38.5Z"/>
    </g>
  </g>
</svg>