<?xml version="1.0" encoding="UTF-8"?>
<svg id="Calque_2" data-name="Calque 2" xmlns="http://www.w3.org/2000/svg" viewBox="0 0 72.77 232">
  <defs>
    <style>
      .cls-1 {
        fill: #fff;
      }
    </style>
  </defs>
  <g id="Calque_1-2" data-name="Calque 1">
    <g>
      <path d="M0,59.62c0-1.68,0-3.35,0-5.03,.18-.68,.46-1.35,.52-2.03C1.67,38.24,6.66,25.11,12.89,12.39,19.82-1.77,29.6-3.21,40.4,8.25c.65,.69,1.27,1.42,1.88,2.16,5.86,7.1,9.88,15.21,12.48,23.99,3.95,13.31,4.92,26.55-1.87,39.4-.72,1.35-1.1,2.9-1.51,4.39-2.74,9.95-.22,19.18,4.02,28.1,3.38,7.11,7.05,14.09,10.39,21.22,5.03,10.76,7.3,22.03,4.8,33.84-3.28,15.51-8.43,30.37-16.07,44.29-4.16,7.58-8.74,14.97-15.88,20.03-3.27,2.32-7.34,4.27-11.25,4.76-8.73,1.11-16.38-5.24-19.43-15.17-2.66-8.66-2.32-17.52-1.21-26.34,2.25-17.91,7.85-34.9,14.09-51.74,1.66-4.49,2.66-9.53,2.63-14.3-.11-16.12-5.98-30.34-15.8-42.9-3.17-4.05-5.5-8.34-6.45-13.39C.79,64.29,.41,61.95,0,59.62Z"/>
      <path class="cls-1" d="M0,59.62c.41,2.33,.79,4.67,1.23,7,.95,5.05,3.28,9.34,6.45,13.39,9.82,12.56,15.68,26.78,15.8,42.9,.03,4.78-.96,9.81-2.63,14.3-6.24,16.84-11.83,33.83-14.09,51.74-1.11,8.82-1.45,17.68,1.21,26.34,3.05,9.93,10.7,16.28,19.43,15.17,3.91-.5,7.97-2.45,11.25-4.76,7.14-5.05,11.72-12.45,15.88-20.03,7.64-13.92,12.79-28.78,16.07-44.29,2.5-11.81,.23-23.08-4.8-33.84-3.34-7.13-7.01-14.11-10.39-21.22-4.24-8.92-6.77-18.15-4.02-28.1,.41-1.49,.8-3.04,1.51-4.39,6.79-12.85,5.82-26.09,1.87-39.4-2.61-8.78-6.62-16.89-12.48-23.99-.61-.74-1.23-1.46-1.88-2.16C29.6-3.21,19.82-1.77,12.89,12.39,6.66,25.11,1.67,38.24,.52,52.56c-.05,.69-.34,1.36-.52,2.03C0,36.39,0,18.2,0,0c24.26,0,48.51,0,72.77,0,0,77.33,0,154.67,0,232-24.26,0-48.51,0-72.77,0C0,174.54,0,117.08,0,59.62Z"/>
    </g>
  </g>
</svg>