<?xml version="1.0" encoding="UTF-8"?>
<svg id="Calque_2" data-name="Calque 2" xmlns="http://www.w3.org/2000/svg" xmlns:xlink="http://www.w3.org/1999/xlink" viewBox="0 0 160.09 159.91">
  <defs>
    <style>
      .cls-1 {
        letter-spacing: .48em;
      }

      .cls-2 {
        font-family: LouisGeorgeCafe-Bold, 'Louis George Cafe';
      }

      .cls-2, .cls-3 {
        fill: #f2f2f2;
        font-size: 21.6px;
      }

      .cls-2, .cls-4 {
        letter-spacing: .5em;
      }

      .cls-5 {
        fill: url(#Dégradé_sans_nom_25);
      }

      .cls-3 {
        font-family: ProtestDemo-Regular, 'Protest Demo';
      }

      .cls-6 {
        fill: url(#Dégradé_sans_nom_13);
      }

      .cls-7 {
        fill: #610f7f;
        font-family: ClementePDac-ExtraLight, ClementePDac;
        font-size: 27px;
      }
    </style>
    <linearGradient id="Dégradé_sans_nom_25" data-name="Dégradé sans nom 25" x1="28.65" y1="76.52" x2="131.99" y2="76.52" gradientUnits="userSpaceOnUse">
      <stop offset="0" stop-color="#b9929f"/>
      <stop offset="1" stop-color="#9c528b"/>
    </linearGradient>
    <linearGradient id="Dégradé_sans_nom_13" data-name="Dégradé sans nom 13" x1="94.7" y1="104.29" x2="41.2" y2="11.61" gradientUnits="userSpaceOnUse">
      <stop offset="0" stop-color="#610f7f"/>
      <stop offset="1" stop-color="#9c528b"/>
    </linearGradient>
  </defs>
  <g id="Calque_1-2" data-name="Calque 1">
    <text class="cls-7" transform="translate(39.92 145.1) rotate(21.43)"><tspan x="0" y="0">C</tspan></text>
    <text class="cls-7" transform="translate(67.15 153.6) rotate(2.06)"><tspan x="0" y="0">h</tspan></text>
    <text class="cls-7" transform="translate(90.13 153.14) rotate(-15.3)"><tspan x="0" y="0">a</tspan></text>
    <text class="cls-7" transform="translate(111.77 145.62) rotate(-28.45)"><tspan x="0" y="0">l</tspan></text>
    <text class="cls-7" transform="translate(121.32 139.86) rotate(-36.75)"><tspan x="0" y="0">l</tspan></text>
    <text class="cls-7" transform="translate(130.82 132.35) rotate(-49.42)"><tspan x="0" y="0">e</tspan></text>
    <text class="cls-7" transform="translate(144.78 113.98) rotate(-66.53)"><tspan x="0" y="0">n</tspan></text>
    <text class="cls-7" transform="translate(152.7 92.42) rotate(-83.98)"><tspan x="0" y="0">g</tspan></text>
    <text class="cls-7" transform="translate(153.8 68.79) rotate(-101.25)"><tspan x="0" y="0">e</tspan></text>
  </g>
  <g id="Calque_2-2" data-name="Calque 2">
    <path class="cls-5" d="M76.17,130.3l-30.04-10.94c-.49-.18-.76-.7-.62-1.2,.14-.5,.64-.82,1.15-.72l35.79,6.63-48.39-17.61c-.5-.18-.77-.72-.62-1.23s.68-.81,1.19-.68l52.97,12.89-58.95-21.46c-.5-.18-.77-.73-.61-1.24,.16-.51,.69-.8,1.21-.67l63.1,16.58L26.01,86.5c-.5-.18-.77-.73-.61-1.24,.16-.51,.7-.8,1.22-.66l69.83,19.03L25.15,77.67c-.5-.18-.77-.73-.61-1.24,.16-.51,.7-.8,1.22-.66l74.18,20.61L25.67,69.35c-.51-.18-.77-.73-.61-1.25,.16-.51,.7-.8,1.22-.66l76.6,21.49L27.4,61.47c-.51-.18-.77-.73-.61-1.25,.17-.51,.71-.8,1.22-.66l77.24,21.73L30.28,54c-.51-.18-.77-.73-.61-1.25,.16-.51,.7-.8,1.22-.66l76.17,21.34L34.3,46.95c-.5-.18-.77-.73-.61-1.24,.16-.51,.7-.8,1.22-.66l73.31,20.29L39.57,40.35c-.5-.18-.77-.73-.61-1.24,.16-.51,.7-.8,1.21-.66l68.43,18.52-62.3-22.68c-.5-.18-.77-.73-.61-1.24s.69-.81,1.21-.67l60.99,15.81L54.95,28.93c-.5-.18-.77-.72-.62-1.23,.15-.51,.67-.81,1.19-.69l49.71,11.7-38.42-13.98c-.48-.17-.75-.68-.63-1.18,.12-.5,.6-.82,1.1-.75l27.66,3.66-5.05-1.84c-.52-.19-.79-.76-.6-1.28s.76-.79,1.28-.6l13.65,4.97c.48,.17,.75,.68,.63,1.18-.12,.5-.6,.82-1.1,.75l-27.66-3.66,45.74,16.65c.5,.18,.77,.72,.62,1.23-.15,.51-.67,.81-1.19,.69l-49.71-11.7,56.68,20.63c.5,.18,.77,.73,.61,1.24s-.69,.81-1.21,.67l-60.99-15.81,64.78,23.58c.5,.18,.77,.73,.61,1.24-.16,.51-.7,.8-1.21,.66L62.4,46.54l70.27,25.58c.5,.18,.77,.73,.61,1.24-.16,.51-.7,.8-1.22,.66L58.76,53.73l73.72,26.83c.51,.18,.77,.73,.61,1.25-.16,.51-.7,.8-1.22,.66L55.69,61.12l75.34,27.42c.51,.18,.77,.73,.61,1.25-.17,.51-.71,.8-1.22,.66l-77.24-21.73,75.26,27.39c.51,.18,.77,.73,.61,1.25-.16,.51-.7,.8-1.22,.66l-76.6-21.49,73.47,26.74c.5,.18,.77,.73,.61,1.24-.16,.51-.7,.8-1.22,.66l-74.18-20.61,69.84,25.42c.5,.18,.77,.73,.61,1.24-.16,.51-.7,.8-1.22,.66l-69.83-19.03,64.1,23.33c.5,.18,.77,.73,.61,1.24-.16,.51-.69,.8-1.21,.67l-63.1-16.58,55.58,20.23c.5,.18,.77,.72,.62,1.23s-.68,.81-1.19,.68l-52.97-12.89,42.68,15.54c.49,.18,.76,.7,.62,1.2-.14,.5-.64,.82-1.15,.72l-35.79-6.63,18.75,6.82c.52,.19,.79,.76,.6,1.28s-.76,.79-1.28,.6Z"/>
    <circle class="cls-6" cx="67.95" cy="57.95" r="53.5"/>
    <text class="cls-3" transform="translate(25.15 83.86)"><tspan class="cls-1" x="0" y="0">C</tspan><tspan class="cls-4" x="35.45" y="0">UL</tspan></text>
    <text class="cls-2" transform="translate(22.91 56.33)"><tspan x="0" y="0">SOLO</tspan></text>
  </g>
</svg>