<?xml version="1.0" encoding="UTF-8"?>
<svg id="Calque_2" data-name="Calque 2" xmlns="http://www.w3.org/2000/svg" xmlns:xlink="http://www.w3.org/1999/xlink" viewBox="0 0 509.47 176.44">
  <defs>
    <style>
      .cls-1 {
        fill: #d2367a;
      }

      .cls-2 {
        fill: url(#Dégradé_sans_nom_26-4);
      }

      .cls-3 {
        clip-path: url(#clippath-1);
      }

      .cls-4, .cls-5 {
        fill: url(#Dégradé_sans_nom_26);
      }

      .cls-6, .cls-7, .cls-5 {
        stroke: #e6e6ed;
        stroke-miterlimit: 10;
        stroke-width: 7px;
      }

      .cls-6, .cls-8 {
        fill: #36206d;
      }

      .cls-7 {
        fill: none;
      }

      .cls-9 {
        clip-path: url(#clippath);
      }

      .cls-10 {
        fill: #e6e6ed;
      }

      .cls-11 {
        fill: url(#Dégradé_sans_nom_26-3);
      }

      .cls-12 {
        fill: url(#Dégradé_sans_nom_26-2);
      }
    </style>
    <linearGradient id="Dégradé_sans_nom_26" data-name="Dégradé sans nom 26" x1="403.4" y1="221.8" x2="482.28" y2="221.8" gradientTransform="translate(-25.71 -134.7)" gradientUnits="userSpaceOnUse">
      <stop offset="0" stop-color="#e7297d"/>
      <stop offset="1" stop-color="#882a86"/>
    </linearGradient>
    <clipPath id="clippath">
      <rect class="cls-5" x="377.68" y="26.9" width="78.89" height="120.4" rx="7.69" ry="7.69" transform="translate(36.76 -104.99) rotate(15)"/>
    </clipPath>
    <linearGradient id="Dégradé_sans_nom_26-2" data-name="Dégradé sans nom 26" x1="410.95" y1="130.04" x2="462.97" y2="143.98" gradientTransform="matrix(1, 0, 0, 1, 0, 0)" xlink:href="#Dégradé_sans_nom_26"/>
    <linearGradient id="Dégradé_sans_nom_26-3" data-name="Dégradé sans nom 26" x1="388.03" y1="128.21" x2="353.03" y2="133.31" gradientTransform="matrix(1, 0, 0, 1, 0, 0)" xlink:href="#Dégradé_sans_nom_26"/>
    <linearGradient id="Dégradé_sans_nom_26-4" data-name="Dégradé sans nom 26" x1="364.07" y1="49.45" x2="426.83" y2="66.27" gradientTransform="matrix(1, 0, 0, 1, 0, 0)" xlink:href="#Dégradé_sans_nom_26"/>
    <clipPath id="clippath-1">
      <rect class="cls-4" x="377.68" y="26.9" width="78.89" height="120.4" rx="7.69" ry="7.69" transform="translate(36.76 -104.99) rotate(15)"/>
    </clipPath>
  </defs>
  <g id="Calque_1-2" data-name="Calque 1">
    <g id="EasyCrea_svg" data-name="EasyCrea + svg">
      <path class="cls-8" d="M384.37,37.04c-44.32,70.55-123.63,119.11-207.62,118.65-47.2,.11-93.78-15.05-133.59-39.94C27.75,106.06,13.06,95.18,0,82.5c13.6,11.94,28.78,22.06,44.53,30.9,42.98,23.98,92.71,36.72,141.92,31.86,75.09-6.8,142.57-54.32,179.18-119.29,2.93-5.25,9.56-7.14,14.81-4.21,5.43,3,7.23,10.03,3.93,15.28h0Z"/>
      <g>
        <path class="cls-8" d="M509.46,30.61l-.7,2.93c-.06,.25-.31,.41-.57,.35-.25-.06-.41-.31-.35-.57h0s.69-2.92,.69-2.92h0c.06-.26,.31-.42,.57-.36,.25,.06,.41,.31,.35,.57h0Z"/>
        <path class="cls-8" d="M508.01,36.45l-.8,2.9c-.07,.25-.32,.39-.57,.32-.25-.07-.39-.32-.32-.57h0s.79-2.89,.79-2.89h0c.07-.26,.32-.4,.57-.33,.25,.07,.4,.32,.33,.57h0Z"/>
        <path class="cls-8" d="M506.37,42.23l-.9,2.87c-.08,.24-.33,.38-.58,.3-.24-.08-.38-.33-.3-.58h0s.89-2.86,.89-2.86h0c.08-.25,.33-.39,.58-.31,.24,.08,.38,.33,.3,.58h0Z"/>
        <path class="cls-8" d="M504.53,47.96l-.99,2.84c-.08,.24-.34,.36-.58,.28s-.36-.34-.28-.58h0s.98-2.83,.98-2.83h0c.08-.25,.34-.37,.58-.29s.36,.34,.28,.58h0Z"/>
        <path class="cls-8" d="M502.49,53.62l-1.09,2.8c-.09,.23-.35,.35-.58,.26-.23-.09-.35-.35-.26-.58h0s1.08-2.8,1.08-2.8h0c.09-.24,.35-.36,.59-.27,.23,.09,.35,.35,.26,.59h0Z"/>
        <path class="cls-8" d="M500.26,59.21l-1.19,2.76c-.1,.23-.36,.33-.59,.23-.23-.1-.33-.36-.23-.59h0s1.18-2.76,1.18-2.76h0c.1-.23,.36-.34,.59-.24,.23,.1,.33,.36,.24,.59h0Z"/>
        <path class="cls-8" d="M497.83,64.71l-1.29,2.72c-.1,.22-.37,.31-.59,.21-.22-.1-.31-.37-.21-.59h0s1.27-2.71,1.27-2.71h0c.1-.23,.37-.32,.59-.22,.22,.1,.32,.37,.21,.59h0Z"/>
        <path class="cls-8" d="M495.21,70.13l-1.38,2.67c-.11,.21-.37,.3-.59,.19s-.3-.37-.19-.59h0s1.37-2.67,1.37-2.67h0c.11-.22,.38-.31,.59-.2,.22,.11,.3,.38,.19,.59h0Z"/>
        <path class="cls-8" d="M492.4,75.45l-1.47,2.62c-.12,.21-.38,.28-.59,.16-.21-.12-.28-.38-.16-.59h0s1.46-2.62,1.46-2.62h0c.12-.22,.38-.29,.59-.17,.21,.12,.28,.38,.17,.59h0Z"/>
        <path class="cls-8" d="M489.4,80.66l-1.57,2.57c-.12,.2-.39,.27-.59,.14-.2-.12-.27-.39-.14-.59h0s1.55-2.56,1.55-2.56h0c.12-.21,.39-.27,.59-.15,.2,.12,.27,.39,.14,.59h0Z"/>
        <path class="cls-8" d="M486.23,85.77l-1.66,2.51c-.13,.19-.39,.25-.59,.12-.19-.13-.25-.39-.12-.59h0s1.64-2.51,1.64-2.51h0c.13-.2,.39-.26,.59-.13,.2,.13,.25,.39,.12,.59h0Z"/>
        <path class="cls-8" d="M482.87,90.76l-1.74,2.45c-.13,.19-.39,.23-.58,.1-.19-.13-.23-.39-.1-.58h0s1.73-2.45,1.73-2.45h0c.13-.2,.4-.24,.59-.11,.19,.13,.23,.4,.1,.59h0Z"/>
        <path class="cls-8" d="M479.35,95.63l-1.83,2.39c-.14,.18-.4,.22-.58,.08s-.22-.4-.08-.58h0s1.81-2.39,1.81-2.39h0c.14-.19,.4-.22,.58-.08,.18,.14,.22,.4,.08,.58h0Z"/>
        <path class="cls-8" d="M475.66,100.38l-1.91,2.32c-.14,.17-.4,.2-.58,.06-.17-.14-.2-.4-.06-.58h0s1.89-2.32,1.89-2.32h0c.14-.18,.4-.21,.58-.06,.18,.14,.2,.4,.06,.58h0Z"/>
        <path class="cls-8" d="M471.8,104.99l-1.99,2.26c-.15,.17-.4,.18-.57,.04s-.18-.4-.04-.57h0s1.97-2.26,1.97-2.26h0c.15-.17,.4-.19,.57-.04,.17,.15,.19,.4,.04,.57h0Z"/>
        <path class="cls-8" d="M467.79,109.48l-2.06,2.19c-.15,.16-.4,.17-.56,.02-.16-.15-.17-.4-.02-.56h0s2.05-2.19,2.05-2.19h0c.15-.17,.41-.17,.57-.02,.16,.15,.17,.41,.02,.57h0Z"/>
        <path class="cls-8" d="M463.64,113.82l-2.13,2.12c-.15,.15-.4,.15-.56,0-.15-.15-.15-.4,0-.56h0s2.12-2.12,2.12-2.12h0c.16-.16,.41-.16,.56,0s.15,.41,0,.56h0Z"/>
        <path class="cls-8" d="M459.34,118.03l-2.2,2.05c-.16,.15-.4,.14-.55-.02-.15-.16-.14-.4,.02-.55h0s2.19-2.05,2.19-2.05h0c.16-.15,.41-.14,.55,.01,.15,.16,.14,.41-.02,.55h0Z"/>
        <path class="cls-8" d="M454.91,122.09l-2.26,1.98c-.16,.14-.4,.12-.54-.04-.14-.16-.12-.4,.04-.54h0s2.25-1.98,2.25-1.98h0c.16-.15,.41-.13,.55,.03,.14,.16,.12,.41-.04,.55h0Z"/>
        <path class="cls-8" d="M450.35,126.01l-2.33,1.9c-.16,.13-.4,.11-.54-.05-.13-.16-.11-.4,.05-.54h0s2.31-1.9,2.31-1.9h0c.16-.14,.4-.11,.54,.05s.11,.4-.05,.54h0Z"/>
        <path class="cls-8" d="M445.67,129.78l-2.38,1.83c-.16,.13-.4,.1-.53-.07-.13-.16-.1-.4,.07-.53h0s2.37-1.83,2.37-1.83h0c.17-.13,.4-.1,.53,.07,.13,.17,.1,.4-.07,.53h0Z"/>
        <path class="cls-8" d="M440.87,133.4l-2.44,1.76c-.17,.12-.4,.08-.52-.08s-.08-.4,.08-.52h0s2.43-1.76,2.43-1.76h0c.17-.12,.4-.09,.52,.08,.12,.17,.08,.4-.08,.52h0Z"/>
        <path class="cls-8" d="M435.97,136.88l-2.49,1.68c-.17,.11-.4,.07-.51-.1-.11-.17-.07-.4,.1-.51h0s2.48-1.68,2.48-1.68h0c.17-.12,.4-.07,.51,.1,.11,.17,.07,.4-.1,.51h0Z"/>
        <path class="cls-8" d="M430.96,140.2l-2.54,1.61c-.17,.11-.39,.06-.5-.11-.11-.17-.06-.39,.11-.5h0s2.53-1.61,2.53-1.61h0c.17-.11,.4-.06,.5,.11,.11,.17,.06,.4-.11,.5h0Z"/>
        <path class="cls-8" d="M425.86,143.38l-2.59,1.53c-.17,.1-.39,.04-.49-.13-.1-.17-.04-.39,.13-.49h0s2.57-1.53,2.57-1.53h0c.17-.1,.39-.05,.49,.12s.05,.39-.13,.49h0Z"/>
        <path class="cls-8" d="M420.67,146.41l-2.63,1.46c-.17,.09-.39,.03-.48-.14-.09-.17-.03-.39,.14-.48l2.62-1.46h0c.17-.1,.39-.04,.48,.14,.1,.17,.03,.39-.14,.48h0Z"/>
        <path class="cls-8" d="M415.39,149.28l-2.67,1.38c-.17,.09-.38,.02-.47-.15-.09-.17-.02-.38,.15-.47l2.66-1.38c.17-.09,.38-.03,.47,.14,.09,.17,.03,.38-.14,.47h0Z"/>
        <path class="cls-8" d="M410.04,152.01l-2.7,1.31c-.17,.08-.38,.01-.46-.16-.08-.17,0-.38,.16-.46l2.69-1.31c.17-.09,.38-.02,.46,.15,.09,.17,.02,.38-.15,.46h0Z"/>
        <path class="cls-8" d="M404.61,154.6l-2.74,1.24c-.17,.08-.37,0-.45-.17-.08-.17,0-.37,.17-.45l2.73-1.24c.17-.08,.37,0,.45,.16,.08,.17,0,.37-.16,.45h0Z"/>
        <path class="cls-8" d="M399.12,157.03l-2.77,1.16c-.17,.07-.37,0-.44-.18-.07-.17,.01-.37,.18-.44l2.76-1.16c.17-.07,.37,0,.44,.17,.07,.17,0,.37-.17,.44h0Z"/>
        <path class="cls-8" d="M393.57,159.32l-2.8,1.09c-.17,.07-.36-.02-.43-.19-.07-.17,.02-.36,.19-.43l2.79-1.09c.17-.07,.36,.01,.43,.18,.07,.17-.01,.36-.18,.43h0Z"/>
        <path class="cls-8" d="M387.95,161.46l-2.83,1.02c-.17,.06-.35-.03-.42-.2s.03-.36,.2-.42l2.82-1.02c.17-.06,.36,.02,.42,.19,.06,.17-.02,.36-.19,.42h0Z"/>
        <path class="cls-8" d="M382.29,163.45l-2.85,.94c-.17,.06-.35-.04-.4-.2-.06-.17,.04-.35,.21-.41l2.84-.95c.17-.06,.35,.03,.41,.2,.06,.17-.03,.35-.2,.41h0Z"/>
        <path class="cls-8" d="M376.57,165.31l-2.87,.87c-.17,.05-.34-.04-.39-.21-.05-.17,.05-.34,.21-.39l2.87-.87c.17-.05,.35,.04,.4,.21,.05,.17-.04,.35-.21,.4h0Z"/>
        <path class="cls-8" d="M370.81,167.02l-2.9,.8c-.17,.05-.34-.05-.38-.22-.05-.17,.05-.34,.22-.38l2.89-.8c.17-.05,.34,.05,.39,.21,.05,.17-.05,.34-.21,.39h0Z"/>
        <path class="cls-8" d="M365.01,168.58l-2.91,.73c-.16,.04-.33-.06-.37-.22-.04-.16,.06-.33,.23-.37l2.91-.73c.16-.04,.33,.05,.38,.22s-.05,.33-.22,.38h0Z"/>
        <path class="cls-8" d="M359.17,170.01l-2.94,.65c-.16,.04-.32-.07-.36-.23-.04-.16,.07-.32,.23-.36h0s2.92-.65,2.92-.65h0c.16-.04,.33,.07,.36,.23,.04,.16-.07,.33-.23,.36h0Z"/>
        <path class="cls-8" d="M353.29,171.24l-2.96,.54c-.16,.03-.32-.08-.35-.24s.08-.32,.24-.35h0s2.95-.54,2.95-.54h0c.16-.03,.32,.08,.35,.24s-.08,.32-.24,.35h0Z"/>
        <path class="cls-8" d="M347.37,172.25l-2.98,.41c-.16,.02-.31-.09-.33-.25-.02-.16,.09-.31,.25-.33h0s2.96-.42,2.96-.42h0c.16-.02,.31,.09,.33,.25s-.09,.31-.25,.33h0Z"/>
        <path class="cls-8" d="M341.4,173.02l-2.99,.28c-.16,.01-.3-.1-.31-.26-.01-.16,.1-.3,.26-.31h0s2.98-.28,2.98-.28h0c.16-.02,.3,.1,.32,.26,.02,.16-.1,.3-.26,.32h0Z"/>
        <path class="cls-8" d="M335.41,173.5l-3,.14c-.16,0-.29-.11-.3-.27s.11-.29,.27-.3h0s2.99-.14,2.99-.14h0c.16,0,.29,.11,.3,.27,0,.16-.11,.29-.27,.3h0Z"/>
        <path class="cls-8" d="M329.4,173.7l-3.01-.02c-.15,0-.28-.13-.28-.28,0-.15,.13-.28,.28-.28h0s2.99,.01,2.99,.01h0c.16,0,.28,.13,.28,.28,0,.16-.13,.28-.28,.28h0Z"/>
        <path class="cls-8" d="M323.38,173.58l-3-.18c-.15,0-.27-.14-.26-.29s.14-.27,.29-.26h0s2.99,.18,2.99,.18h0c.15,0,.27,.14,.26,.29,0,.15-.14,.27-.29,.26h0Z"/>
        <path class="cls-8" d="M317.39,173.13l-2.99-.35c-.15-.02-.25-.15-.24-.3s.15-.25,.3-.24h0s2.97,.35,2.97,.35h0c.15,.02,.26,.15,.24,.3s-.15,.26-.3,.24h0Z"/>
        <path class="cls-8" d="M311.42,172.34l-2.96-.52c-.14-.03-.24-.16-.21-.31s.16-.24,.31-.21h0s2.95,.52,2.95,.52h0c.15,.03,.24,.16,.22,.31s-.16,.24-.31,.22h0Z"/>
        <path class="cls-8" d="M305.52,171.21l-2.93-.69c-.14-.03-.23-.17-.19-.31s.17-.23,.31-.19h0s2.91,.69,2.91,.69h0c.14,.03,.23,.18,.2,.32-.03,.14-.17,.23-.32,.2h0Z"/>
        <path class="cls-8" d="M299.69,169.74l-2.88-.86c-.14-.04-.21-.18-.17-.32,.04-.13,.18-.21,.32-.17h0s2.87,.85,2.87,.85h0c.14,.04,.21,.19,.17,.32-.04,.14-.18,.21-.32,.17h0Z"/>
        <path class="cls-8" d="M293.95,167.94l-2.83-1.02c-.13-.05-.2-.19-.15-.32,.05-.13,.19-.2,.32-.15h0s2.82,1.01,2.82,1.01h0c.13,.05,.2,.19,.15,.33-.05,.13-.19,.2-.32,.15h0Z"/>
        <path class="cls-8" d="M288.32,165.83l-2.77-1.16c-.13-.05-.18-.2-.13-.32,.05-.13,.2-.18,.32-.13h0s2.76,1.16,2.76,1.16h0c.13,.06,.19,.2,.13,.33-.05,.13-.2,.19-.32,.13h0Z"/>
        <path class="cls-8" d="M282.81,163.44l-2.71-1.3c-.12-.06-.17-.2-.11-.32,.06-.12,.2-.17,.32-.11h0s2.7,1.29,2.7,1.29h0c.12,.06,.17,.21,.11,.33-.06,.12-.2,.17-.32,.12h0Z"/>
        <path class="cls-8" d="M277.42,160.78l-2.65-1.42c-.12-.06-.16-.2-.1-.32,.06-.12,.21-.16,.32-.09l2.64,1.41h0c.12,.06,.16,.21,.1,.33s-.21,.16-.32,.1h0Z"/>
        <path class="cls-8" d="M272.15,157.89l-2.59-1.52c-.11-.06-.15-.21-.08-.32,.06-.11,.21-.15,.32-.08l2.59,1.51c.11,.06,.15,.21,.09,.32-.06,.11-.21,.15-.32,.09h0Z"/>
        <path class="cls-8" d="M266.99,154.81l-2.54-1.61c-.11-.07-.14-.21-.07-.31,.07-.11,.21-.14,.32-.07l2.53,1.6c.11,.07,.14,.21,.08,.32-.07,.11-.21,.14-.32,.08h0Z"/>
        <path class="cls-8" d="M261.95,151.55l-2.48-1.69c-.1-.07-.13-.21-.06-.31s.21-.13,.31-.06l2.48,1.68c.1,.07,.13,.21,.06,.31-.07,.1-.21,.13-.31,.06h0Z"/>
        <path class="cls-8" d="M257.01,148.14l-2.44-1.75c-.1-.07-.12-.21-.05-.3,.07-.1,.21-.12,.31-.05l2.44,1.75c.1,.07,.12,.21,.05,.31-.07,.1-.21,.12-.31,.05h0Z"/>
        <path class="cls-8" d="M252.15,144.61l-2.4-1.81c-.09-.07-.11-.2-.04-.3,.07-.09,.21-.11,.3-.04l2.4,1.8c.1,.07,.12,.21,.05,.3s-.21,.12-.3,.05h0Z"/>
        <path class="cls-8" d="M247.37,140.97l-2.36-1.85c-.09-.07-.11-.2-.04-.29,.07-.09,.2-.11,.29-.03l2.36,1.84c.09,.07,.11,.2,.04,.3-.07,.09-.2,.11-.3,.04h0Z"/>
        <path class="cls-8" d="M242.66,137.25l-2.34-1.88c-.09-.07-.1-.2-.03-.29,.07-.09,.2-.1,.29-.03l2.34,1.88c.09,.07,.1,.2,.03,.29-.07,.09-.2,.1-.29,.03h0Z"/>
        <path class="cls-8" d="M238,133.47l-2.31-1.91c-.08-.07-.1-.2-.03-.28s.2-.1,.28-.03l2.31,1.91c.09,.07,.1,.2,.03,.28-.07,.09-.2,.1-.28,.03h0Z"/>
        <path class="cls-8" d="M233.38,129.64l-2.29-1.93c-.08-.07-.09-.19-.02-.27,.07-.08,.19-.09,.27-.02l2.3,1.93c.08,.07,.09,.19,.03,.28-.07,.08-.19,.09-.28,.03h0Z"/>
        <path class="cls-8" d="M228.8,125.76l-2.28-1.95c-.08-.07-.09-.19-.02-.27,.07-.08,.19-.09,.27-.02l2.29,1.94c.08,.07,.09,.19,.02,.27-.07,.08-.19,.09-.27,.02h0Z"/>
        <path class="cls-8" d="M224.24,121.87l-2.28-1.96c-.08-.07-.09-.18-.02-.26,.07-.08,.18-.09,.26-.02l2.28,1.95c.08,.07,.09,.19,.02,.26s-.19,.09-.26,.02h0Z"/>
        <path class="cls-8" d="M219.69,117.95l-2.27-1.96c-.08-.07-.08-.18-.02-.25s.18-.08,.25-.02l2.27,1.96c.08,.07,.09,.18,.02,.26-.07,.08-.18,.09-.26,.02h0Z"/>
        <path class="cls-8" d="M215.15,114.03l-2.27-1.96c-.07-.06-.08-.17-.02-.25,.06-.07,.17-.08,.25-.02l2.27,1.96c.07,.06,.08,.18,.02,.25s-.18,.08-.25,.02h0Z"/>
        <path class="cls-8" d="M210.6,110.12l-2.28-1.95c-.07-.06-.08-.17-.02-.24,.06-.07,.17-.08,.24-.02l2.28,1.95c.07,.06,.08,.17,.02,.24-.06,.07-.17,.08-.24,.02h0Z"/>
        <path class="cls-8" d="M206.05,106.21l-2.28-1.95c-.07-.06-.08-.16-.02-.23,.06-.07,.16-.08,.24-.02l2.29,1.94c.07,.06,.08,.17,.02,.24-.06,.07-.17,.08-.24,.02h0Z"/>
        <path class="cls-8" d="M201.48,102.32l-2.29-1.94c-.07-.06-.08-.16-.02-.23,.06-.07,.16-.08,.23-.02l2.3,1.93c.07,.06,.08,.16,.02,.23-.06,.07-.16,.08-.23,.02h0Z"/>
        <path class="cls-8" d="M196.9,98.46l-2.31-1.91c-.07-.05-.08-.15-.03-.22s.16-.08,.22-.02l2.32,1.91c.07,.06,.08,.16,.02,.22-.06,.07-.16,.08-.22,.02h0Z"/>
        <path class="cls-8" d="M192.24,94.69l-2.4-1.8c-.07-.05-.09-.14-.04-.21s.15-.08,.22-.03l2.41,1.8c.07,.05,.08,.15,.03,.22s-.15,.08-.22,.03h0Z"/>
        <path class="cls-8" d="M187.39,91.16l-2.49-1.67c-.07-.04-.09-.14-.05-.2,.04-.07,.14-.09,.21-.04l2.5,1.67c.07,.05,.09,.14,.04,.21-.05,.07-.14,.09-.21,.04h0Z"/>
        <path class="cls-8" d="M182.38,87.88l-2.57-1.55c-.07-.04-.09-.13-.05-.2s.13-.09,.2-.05l2.58,1.55c.07,.04,.09,.13,.05,.2-.04,.07-.13,.09-.2,.05h0Z"/>
        <path class="cls-8" d="M177.21,84.85l-2.64-1.42c-.07-.03-.1-.12-.06-.19,.03-.07,.12-.09,.19-.06l2.65,1.42c.07,.04,.09,.12,.06,.19s-.12,.09-.19,.06h0Z"/>
        <path class="cls-8" d="M171.9,82.07l-2.7-1.3c-.07-.03-.1-.11-.07-.18s.11-.1,.18-.07l2.71,1.29c.07,.03,.1,.11,.06,.18-.03,.07-.11,.1-.18,.06h0Z"/>
        <path class="cls-8" d="M166.47,79.54l-2.76-1.17c-.07-.03-.1-.1-.07-.17,.03-.07,.1-.1,.17-.07l2.77,1.17c.07,.03,.1,.11,.07,.17-.03,.07-.11,.1-.17,.07h0Z"/>
        <path class="cls-8" d="M160.92,77.26l-2.81-1.05c-.07-.02-.1-.09-.08-.16s.1-.1,.16-.08l2.81,1.05c.07,.02,.1,.1,.07,.16-.02,.07-.1,.1-.16,.07h0Z"/>
        <path class="cls-8" d="M155.29,75.21l-2.85-.94c-.06-.02-.1-.09-.08-.15,.02-.06,.09-.1,.15-.08l2.85,.93c.06,.02,.1,.09,.08,.15-.02,.06-.09,.1-.15,.08h0Z"/>
        <path class="cls-8" d="M149.57,73.39l-2.88-.82c-.06-.02-.1-.08-.08-.14,.02-.06,.08-.1,.14-.08l2.89,.82c.06,.02,.1,.08,.08,.15-.02,.06-.08,.1-.15,.08h0Z"/>
        <path class="cls-8" d="M143.79,71.8l-2.91-.71c-.06-.01-.1-.07-.08-.13,.01-.06,.07-.1,.13-.08l2.92,.71c.06,.01,.1,.08,.08,.14-.01,.06-.08,.1-.14,.08h0Z"/>
        <path class="cls-8" d="M137.95,70.43l-2.94-.61c-.06-.01-.1-.07-.08-.12,.01-.06,.07-.1,.13-.08l2.94,.61c.06,.01,.1,.07,.08,.13s-.07,.1-.13,.08h0Z"/>
        <path class="cls-8" d="M132.07,69.26l-2.95-.51c-.06,0-.09-.06-.08-.12,0-.06,.06-.09,.12-.08l2.96,.51c.06,0,.09,.06,.08,.12,0,.06-.06,.09-.12,.08h0Z"/>
        <path class="cls-8" d="M126.15,68.28l-2.97-.42c-.05,0-.09-.05-.08-.11s.06-.09,.11-.08l2.97,.41c.05,0,.09,.06,.08,.11,0,.05-.06,.09-.11,.08h0Z"/>
        <path class="cls-8" d="M120.21,67.5l-2.98-.33c-.05,0-.09-.05-.08-.1,0-.05,.05-.09,.1-.08l2.98,.32c.05,0,.09,.05,.08,.1,0,.05-.05,.09-.1,.08h0Z"/>
        <path class="cls-8" d="M114.24,66.89l-2.99-.24s-.08-.04-.08-.09,.05-.08,.09-.08l2.99,.23s.09,.05,.08,.1c0,.05-.05,.09-.1,.08h0Z"/>
        <path class="cls-8" d="M108.26,66.46l-2.99-.16s-.08-.04-.08-.09c0-.05,.04-.08,.09-.08l3,.15s.08,.04,.08,.09c0,.05-.04,.08-.09,.08h0Z"/>
        <path class="cls-8" d="M102.27,66.18l-3-.08s-.08-.04-.08-.08c0-.04,.04-.08,.08-.08l3,.07s.08,.04,.08,.08-.04,.08-.08,.08h0Z"/>
        <path class="cls-8" d="M96.27,66.06h-3s-.07-.04-.07-.08c0-.04,.03-.07,.07-.07h3s.08,.03,.08,.07c0,.04-.03,.08-.08,.08h0Z"/>
        <path class="cls-8" d="M90.27,66.09l-3,.07s-.07-.03-.07-.07c0-.04,.03-.07,.07-.07l3-.07s.07,.03,.07,.07c0,.04-.03,.07-.07,.07h0Z"/>
        <path class="cls-8" d="M84.28,66.26l-3,.14s-.07-.03-.07-.06,.03-.07,.06-.07l3-.14s.07,.03,.07,.06-.03,.07-.06,.07h0Z"/>
        <path class="cls-8" d="M78.29,66.57l-2.99,.2s-.06-.02-.06-.05c0-.03,.02-.06,.06-.06l2.99-.21s.06,.02,.07,.06c0,.03-.02,.06-.06,.07h0Z"/>
        <path class="cls-8" d="M72.3,67l-2.99,.26s-.06-.02-.06-.05c0-.03,.02-.06,.05-.06l2.99-.27s.06,.02,.06,.05c0,.03-.02,.06-.05,.06h0Z"/>
        <path class="cls-8" d="M66.33,67.55l-2.98,.32s-.05-.02-.06-.04c0-.03,.02-.05,.04-.06l2.98-.33s.05,.02,.06,.05-.02,.05-.05,.06h0Z"/>
        <path class="cls-8" d="M60.37,68.23l-2.98,.38s-.05-.01-.05-.04,.01-.05,.04-.05l2.98-.39s.05,.02,.05,.04c0,.03-.02,.05-.04,.05h0Z"/>
        <path class="cls-8" d="M54.42,69.02l-2.97,.44s-.04-.01-.05-.03c0-.02,.01-.04,.03-.05l2.97-.44s.05,.01,.05,.04c0,.02-.01,.05-.04,.05h0Z"/>
        <path class="cls-8" d="M48.49,69.92l-2.96,.49s-.04,0-.04-.03c0-.02,.01-.04,.03-.04l2.96-.5s.04,.01,.04,.03c0,.02-.01,.04-.03,.04h0Z"/>
        <path class="cls-8" d="M42.58,70.93l-2.95,.54s-.03,0-.04-.03,0-.03,.03-.04l2.95-.55s.04,0,.04,.03c0,.02,0,.04-.03,.04h0Z"/>
        <path class="cls-8" d="M36.68,72.04l-2.94,.6s-.03,0-.03-.02c0-.01,0-.03,.02-.03l2.94-.6s.03,0,.03,.02c0,.02,0,.03-.02,.03h0Z"/>
        <path class="cls-8" d="M30.81,73.26l-2.93,.65s-.02,0-.03-.02c0-.01,0-.02,.02-.03l2.93-.65s.03,0,.03,.02c0,.01,0,.03-.02,.03h0Z"/>
        <path class="cls-8" d="M24.95,74.59l-2.92,.7s-.02,0-.02-.01c0,0,0-.02,.01-.02l2.92-.7s.02,0,.02,.01c0,.01,0,.02-.01,.02h0Z"/>
        <path class="cls-8" d="M19.13,76.01l-2.9,.75s-.01,0-.02,0c0,0,0-.01,0-.02l2.9-.76s.02,0,.02,.01c0,0,0,.02-.01,.02h0Z"/>
        <path class="cls-8" d="M13.33,77.55l-2.89,.81s0,0-.01,0c0,0,0,0,0-.01l2.89-.81s.01,0,.01,0c0,0,0,.01,0,.01h0Z"/>
        <polygon class="cls-8" points="7.56 79.2 4.69 80.07 4.68 80.07 4.68 80.06 7.55 79.19 7.56 79.19 7.56 79.2 7.56 79.2"/>
        <polygon class="cls-8" points="1.83 80.99 .03 81.59 0 81.6 0 81.6 .56 82.51 .56 82.51 0 81.6 0 81.6 .03 81.59 1.83 80.98 1.83 80.99"/>
        <polygon class="cls-8" points="2.21 85.02 3.91 87.49 3.91 87.5 3.9 87.5 3.9 87.5 2.2 85.03 2.2 85.02 2.21 85.02"/>
        <path class="cls-8" d="M5.66,89.92l1.79,2.4s0,.02,0,.02c0,0-.02,0-.02,0h0s-1.79-2.41-1.79-2.41c0,0,0-.01,0-.02s.01,0,.02,0Z"/>
        <path class="cls-8" d="M9.29,94.7l1.87,2.35s0,.02,0,.03c0,0-.02,0-.03,0h0s-1.86-2.35-1.86-2.35c0,0,0-.02,0-.03s.02,0,.03,0Z"/>
        <path class="cls-8" d="M13.05,99.37l1.93,2.29s0,.03,0,.04-.03,0-.04,0h0s-1.93-2.3-1.93-2.3c0-.01,0-.03,0-.04,.01,0,.03,0,.04,0Z"/>
        <path class="cls-8" d="M16.96,103.92l2,2.24s.01,.04,0,.05c-.01,.01-.04,.01-.05,0h0s-1.99-2.24-1.99-2.24c-.01-.01-.01-.03,0-.05,.01-.01,.03-.01,.05,0Z"/>
        <path class="cls-8" d="M20.99,108.37l2.06,2.18s.02,.04,0,.06c-.02,.02-.04,.02-.06,0h0s-2.06-2.18-2.06-2.18c-.01-.02-.01-.04,0-.06s.04-.01,.06,0Z"/>
        <path class="cls-8" d="M25.14,112.7l2.12,2.12s.02,.05,0,.07c-.02,.02-.05,.02-.07,0h0s-2.12-2.13-2.12-2.13c-.02-.02-.02-.05,0-.06,.02-.02,.05-.02,.07,0Z"/>
        <path class="cls-8" d="M29.41,116.91l2.18,2.06s.02,.06,0,.08c-.02,.02-.06,.02-.08,0h0s-2.18-2.07-2.18-2.07c-.02-.02-.02-.05,0-.07s.05-.02,.07,0Z"/>
        <path class="cls-8" d="M33.79,121l2.24,2s.03,.06,0,.09c-.02,.03-.06,.03-.09,0h0s-2.23-2-2.23-2c-.02-.02-.03-.06,0-.08s.06-.03,.08,0Z"/>
        <path class="cls-8" d="M38.29,124.96l2.29,1.93s.03,.07,0,.1-.07,.03-.1,0h0s-2.29-1.94-2.29-1.94c-.03-.02-.03-.07,0-.09,.02-.03,.07-.03,.09,0Z"/>
        <path class="cls-8" d="M42.91,128.79l2.35,1.86s.04,.07,.01,.11c-.03,.03-.07,.04-.11,.01h0s-2.35-1.87-2.35-1.87c-.03-.03-.04-.07-.01-.1,.03-.03,.07-.04,.1-.01Z"/>
        <path class="cls-8" d="M47.63,132.48l2.4,1.79s.05,.08,.02,.12c-.03,.04-.08,.05-.12,.02h0s-2.4-1.8-2.4-1.8c-.04-.03-.04-.08-.02-.11,.03-.04,.08-.04,.11-.02Z"/>
        <path class="cls-8" d="M52.47,136.03l2.46,1.72s.05,.08,.02,.13c-.03,.04-.08,.05-.13,.02h0s-2.46-1.73-2.46-1.73c-.04-.03-.05-.08-.02-.12s.08-.05,.12-.02Z"/>
        <path class="cls-8" d="M57.41,139.43l2.51,1.64s.06,.09,.03,.13c-.03,.05-.09,.06-.13,.03h0s-2.51-1.65-2.51-1.65c-.04-.03-.06-.09-.03-.13,.03-.04,.09-.05,.13-.03Z"/>
        <path class="cls-8" d="M62.45,142.67l2.56,1.56s.07,.09,.04,.14c-.03,.05-.09,.07-.14,.04h0s-2.56-1.57-2.56-1.57c-.05-.03-.06-.09-.03-.14,.03-.05,.09-.06,.14-.03Z"/>
        <path class="cls-8" d="M67.6,145.74l2.61,1.47c.05,.03,.07,.1,.04,.15s-.1,.07-.15,.04h0s-2.61-1.48-2.61-1.48c-.05-.03-.07-.09-.04-.15,.03-.05,.1-.07,.15-.04Z"/>
        <path class="cls-8" d="M72.85,148.64l2.66,1.38c.06,.03,.08,.1,.05,.16-.03,.06-.1,.08-.16,.05h0s-2.66-1.39-2.66-1.39c-.06-.03-.08-.1-.05-.15s.1-.08,.16-.05Z"/>
        <path class="cls-8" d="M78.19,151.37l2.7,1.29c.06,.03,.09,.1,.06,.17-.03,.06-.1,.09-.17,.06h0s-2.71-1.3-2.71-1.3c-.06-.03-.09-.1-.06-.16,.03-.06,.1-.08,.16-.06Z"/>
        <path class="cls-8" d="M83.62,153.91l2.75,1.2c.07,.03,.1,.1,.07,.17-.03,.07-.1,.1-.17,.07h0s-2.75-1.21-2.75-1.21c-.06-.03-.09-.1-.07-.17s.11-.09,.17-.07Z"/>
        <path class="cls-8" d="M89.13,156.25l2.79,1.1c.07,.03,.11,.11,.08,.18-.03,.07-.11,.11-.18,.08h0s-2.79-1.11-2.79-1.11c-.07-.03-.1-.11-.08-.18,.03-.07,.11-.1,.18-.07Z"/>
        <path class="cls-8" d="M94.73,158.4l2.83,1c.08,.03,.12,.11,.09,.18-.03,.08-.11,.12-.18,.09h0s-2.83-1.01-2.83-1.01c-.07-.03-.11-.11-.09-.18,.03-.07,.11-.11,.18-.09Z"/>
        <path class="cls-8" d="M100.4,160.35l2.86,.9c.08,.02,.13,.11,.1,.19-.02,.08-.11,.13-.19,.1h0s-2.86-.91-2.86-.91c-.08-.02-.12-.11-.1-.19,.02-.08,.11-.12,.19-.1Z"/>
        <path class="cls-8" d="M106.13,162.09l2.89,.79c.09,.02,.14,.11,.11,.19-.02,.09-.11,.14-.19,.11h0s-2.89-.8-2.89-.8c-.08-.02-.13-.11-.11-.19s.11-.13,.19-.11Z"/>
        <path class="cls-8" d="M111.93,163.62l2.92,.68c.09,.02,.15,.11,.13,.2-.02,.09-.11,.15-.2,.13h0s-2.92-.69-2.92-.69c-.09-.02-.14-.11-.12-.2,.02-.09,.11-.14,.2-.12Z"/>
        <path class="cls-8" d="M117.78,164.93l2.94,.58c.09,.02,.16,.11,.14,.2-.02,.09-.11,.16-.2,.14h0s-2.94-.58-2.94-.58c-.09-.02-.15-.11-.13-.2,.02-.09,.11-.15,.2-.13Z"/>
        <path class="cls-8" d="M123.67,166.03l2.96,.47c.1,.01,.17,.1,.15,.2-.01,.1-.1,.17-.2,.15h0s-2.97-.48-2.97-.48c-.1-.02-.16-.11-.15-.2,.02-.1,.11-.16,.2-.15Z"/>
        <path class="cls-8" d="M129.6,166.91l2.98,.36c.1,.01,.18,.1,.17,.2s-.1,.18-.2,.17h0s-2.98-.37-2.98-.37c-.1-.01-.17-.1-.16-.2,.01-.1,.11-.17,.21-.16Z"/>
        <path class="cls-8" d="M135.55,167.58l2.98,.3c.11,.01,.18,.1,.17,.21-.01,.11-.1,.18-.21,.17h0s-2.98-.31-2.98-.31c-.1-.01-.18-.1-.17-.21,.01-.1,.1-.18,.21-.17Z"/>
        <path class="cls-8" d="M141.52,168.17l2.99,.27c.11,0,.19,.1,.18,.21,0,.11-.1,.19-.21,.18h0s-2.99-.27-2.99-.27c-.11,0-.19-.1-.18-.21,0-.11,.1-.19,.21-.18Z"/>
        <path class="cls-8" d="M147.49,168.69l2.99,.23c.11,0,.19,.1,.19,.21,0,.11-.1,.19-.21,.19h0s-2.99-.24-2.99-.24c-.11,0-.19-.1-.18-.21,0-.11,.11-.19,.21-.18Z"/>
        <path class="cls-8" d="M153.47,169.13l2.99,.19c.11,0,.2,.1,.19,.22s-.1,.2-.22,.19h0s-2.99-.2-2.99-.2c-.11,0-.2-.1-.19-.22,0-.11,.11-.2,.22-.19Z"/>
        <path class="cls-8" d="M159.46,169.5l2.99,.16c.12,0,.21,.1,.2,.22,0,.12-.1,.21-.22,.2h0s-3-.16-3-.16c-.11,0-.2-.1-.2-.22s.11-.2,.22-.2Z"/>
        <path class="cls-8" d="M165.45,169.79l3,.12c.12,0,.21,.1,.21,.22s-.1,.21-.22,.21h0s-3-.12-3-.12c-.12,0-.21-.1-.2-.22,0-.12,.11-.21,.22-.2Z"/>
        <path class="cls-8" d="M171.44,170.01l3,.08c.12,0,.22,.1,.22,.22,0,.12-.1,.22-.22,.22h0s-3-.08-3-.08c-.12,0-.22-.1-.21-.22,0-.12,.1-.22,.23-.21Z"/>
        <path class="cls-8" d="M177.44,170.14l3,.03c.12,0,.23,.1,.22,.23s-.1,.23-.23,.22h0s-3-.04-3-.04c-.12,0-.22-.1-.22-.23,0-.12,.1-.22,.23-.22Z"/>
        <path class="cls-8" d="M183.43,170.18h3c.13-.01,.23,.09,.23,.22,0,.13-.1,.23-.23,.23h-3c-.13,0-.23-.1-.23-.22,0-.13,.1-.23,.23-.23Z"/>
        <path class="cls-8" d="M189.43,170.14l3-.06c.13,0,.24,.1,.24,.23,0,.13-.1,.24-.23,.24h0s-3,.05-3,.05c-.13,0-.23-.1-.24-.23,0-.13,.1-.23,.23-.24Z"/>
        <path class="cls-8" d="M195.42,170l3-.1c.13,0,.24,.1,.25,.23,0,.13-.1,.24-.23,.25h0s-3,.1-3,.1c-.13,0-.24-.1-.25-.23,0-.13,.1-.24,.23-.25Z"/>
        <path class="cls-8" d="M201.41,169.76l2.99-.15c.14,0,.25,.1,.26,.23,0,.14-.1,.25-.23,.26h0s-3,.15-3,.15c-.13,0-.25-.1-.25-.23,0-.13,.1-.25,.23-.25Z"/>
        <path class="cls-8" d="M207.4,169.43l2.99-.2c.14-.01,.26,.09,.27,.23,.01,.14-.09,.26-.23,.27h0s-3,.2-3,.2c-.14,0-.25-.09-.26-.23,0-.14,.1-.25,.23-.26Z"/>
        <path class="cls-8" d="M213.38,169l2.99-.26c.14-.01,.26,.09,.28,.23,.01,.14-.09,.26-.23,.28h0s-2.99,.25-2.99,.25c-.14,.01-.26-.09-.27-.23-.01-.14,.09-.26,.23-.27Z"/>
        <path class="cls-8" d="M219.35,168.46l2.98-.31c.14-.02,.27,.09,.29,.23,.02,.14-.09,.27-.23,.29h0s-2.99,.31-2.99,.31c-.14,.01-.27-.09-.28-.23-.01-.14,.09-.27,.23-.28Z"/>
        <path class="cls-8" d="M225.31,167.81l2.97-.37c.15-.02,.28,.08,.3,.23,.02,.15-.08,.28-.23,.3h0s-2.98,.36-2.98,.36c-.14,.02-.27-.09-.29-.23s.09-.28,.23-.29Z"/>
        <path class="cls-8" d="M231.26,167.05l2.97-.42c.15-.02,.29,.08,.31,.23,.02,.15-.08,.29-.23,.31h0s-2.97,.42-2.97,.42c-.15,.02-.28-.08-.3-.23-.02-.15,.08-.28,.23-.3Z"/>
        <path class="cls-8" d="M237.19,166.18l2.96-.48c.15-.03,.29,.07,.32,.22,.03,.15-.07,.29-.22,.32h0s-2.96,.48-2.96,.48c-.15,.02-.29-.08-.31-.23-.02-.15,.08-.29,.23-.31Z"/>
        <path class="cls-8" d="M243.1,165.19l2.95-.54c.15-.03,.3,.07,.33,.22,.03,.15-.07,.3-.22,.33h0s-2.95,.54-2.95,.54c-.15,.03-.3-.07-.32-.22-.03-.15,.07-.3,.23-.32Z"/>
        <path class="cls-8" d="M248.99,164.08l2.94-.6c.15-.03,.31,.06,.34,.22s-.06,.31-.22,.34h0s-2.94,.6-2.94,.6c-.15,.03-.3-.07-.33-.22-.03-.15,.07-.3,.22-.33Z"/>
        <path class="cls-8" d="M254.85,162.85l2.92-.66c.16-.04,.31,.06,.35,.21s-.06,.31-.21,.35h0s-2.93,.66-2.93,.66c-.15,.03-.31-.06-.34-.22s.06-.31,.22-.34Z"/>
        <path class="cls-8" d="M260.69,161.49l2.91-.72c.16-.04,.32,.05,.36,.21,.04,.16-.05,.32-.21,.36h0s-2.91,.72-2.91,.72c-.16,.04-.31-.06-.35-.21-.04-.16,.06-.32,.22-.35Z"/>
        <path class="cls-8" d="M266.49,160.01l2.89-.79c.16-.05,.32,.05,.37,.21,.05,.16-.05,.32-.21,.37h0s-2.9,.79-2.9,.79c-.16,.04-.32-.05-.36-.21-.04-.16,.05-.32,.21-.36Z"/>
        <path class="cls-8" d="M272.26,158.4l2.87-.85c.16-.05,.33,.04,.38,.2,.05,.16-.04,.33-.2,.38h0s-2.88,.85-2.88,.85c-.16,.05-.33-.04-.38-.2-.05-.16,.05-.33,.21-.38Z"/>
        <path class="cls-8" d="M278,156.66l2.85-.92c.16-.05,.34,.03,.39,.19,.05,.16-.03,.34-.2,.39h0s-2.86,.92-2.86,.92c-.16,.05-.33-.04-.39-.2-.05-.16,.04-.33,.2-.39Z"/>
        <path class="cls-8" d="M283.69,154.79l2.83-.98c.16-.06,.34,.03,.4,.19,.06,.16-.03,.34-.19,.4h0s-2.84,.98-2.84,.98c-.16,.06-.34-.03-.4-.19-.06-.16,.03-.34,.2-.4Z"/>
        <path class="cls-8" d="M289.34,152.79l2.81-1.05c.16-.06,.35,.02,.41,.18,.06,.16-.02,.35-.18,.41h0s-2.81,1.05-2.81,1.05c-.16,.06-.35-.02-.41-.19-.06-.16,.03-.35,.19-.41Z"/>
        <path class="cls-8" d="M294.94,150.65l2.78-1.12c.17-.07,.35,0,.42,.17,.07,.17,0,.35-.17,.42h0s-2.79,1.12-2.79,1.12c-.16,.07-.35-.01-.42-.18-.07-.16,.02-.35,.18-.42Z"/>
        <path class="cls-8" d="M300.48,148.38l2.75-1.18c.17-.07,.36,0,.43,.17,.07,.17,0,.36-.17,.43h0s-2.76,1.18-2.76,1.18c-.17,.07-.36,0-.43-.17s0-.36,.17-.43Z"/>
        <path class="cls-8" d="M305.97,145.98l2.72-1.25c.17-.08,.37,0,.44,.16,.08,.17,0,.37-.16,.44h0s-2.73,1.25-2.73,1.25c-.17,.08-.36,0-.44-.16-.08-.17,0-.36,.17-.44Z"/>
        <path class="cls-8" d="M311.4,143.45l2.69-1.32c.17-.08,.37-.02,.45,.15s.02,.37-.15,.45h0s-2.7,1.32-2.7,1.32c-.17,.08-.37,.01-.45-.15s0-.37,.16-.45Z"/>
        <path class="cls-8" d="M316.76,140.78l2.66-1.38c.17-.09,.38-.03,.47,.14,.09,.17,.03,.38-.14,.47h0s-2.67,1.38-2.67,1.38c-.17,.09-.37,.02-.46-.15-.09-.17-.02-.37,.15-.46Z"/>
        <path class="cls-8" d="M322.06,137.98l2.62-1.45c.17-.1,.38-.04,.48,.13s.04,.38-.13,.48h0s-2.63,1.45-2.63,1.45c-.17,.09-.38,.03-.47-.14-.09-.17-.03-.38,.14-.47Z"/>
        <path class="cls-8" d="M327.29,135.05l2.59-1.51c.17-.1,.38-.05,.48,.12,.1,.17,.05,.38-.12,.48h0s-2.6,1.51-2.6,1.51c-.17,.1-.38,.04-.48-.13-.1-.17-.04-.38,.13-.48Z"/>
        <path class="cls-8" d="M332.44,132l2.55-1.57c.17-.11,.39-.06,.49,.11,.11,.17,.06,.39-.11,.49h0s-2.56,1.58-2.56,1.58c-.17,.1-.39,.05-.49-.12-.1-.17-.05-.39,.12-.49Z"/>
        <path class="cls-8" d="M337.52,128.82l2.51-1.64c.17-.11,.39-.07,.5,.1,.11,.17,.07,.39-.1,.5h0s-2.52,1.64-2.52,1.64c-.17,.11-.39,.06-.5-.11-.11-.17-.06-.39,.11-.5Z"/>
        <path class="cls-8" d="M342.52,125.51l2.47-1.7c.17-.12,.4-.08,.51,.09,.12,.17,.08,.4-.09,.51h0s-2.48,1.7-2.48,1.7c-.17,.11-.39,.07-.51-.09s-.07-.4,.1-.51Z"/>
        <path class="cls-8" d="M347.43,122.09l2.43-1.76c.17-.12,.4-.09,.52,.08s.09,.4-.08,.52h0s-2.44,1.76-2.44,1.76c-.17,.12-.4,.08-.52-.08-.12-.17-.08-.4,.09-.52Z"/>
        <path class="cls-8" d="M352.26,118.55l2.38-1.81c.16-.13,.4-.1,.53,.07,.13,.16,.1,.4-.07,.53h0s-2.39,1.82-2.39,1.82c-.17,.13-.4,.09-.53-.07-.13-.17-.09-.4,.08-.53Z"/>
        <path class="cls-8" d="M357.01,114.89l2.34-1.87c.16-.13,.4-.11,.54,.05,.13,.16,.11,.4-.05,.54h0s-2.35,1.87-2.35,1.87c-.16,.13-.4,.1-.53-.06-.13-.16-.1-.41,.06-.54Z"/>
        <path class="cls-8" d="M361.67,111.13l2.3-1.92c.16-.14,.41-.12,.55,.04,.14,.16,.12,.41-.04,.55h0s-2.31,1.93-2.31,1.93c-.16,.14-.41,.11-.54-.05-.14-.16-.11-.41,.05-.55Z"/>
        <path class="cls-8" d="M366.23,107.26l2.25-1.98c.16-.14,.41-.13,.55,.03,.14,.16,.13,.41-.03,.55h0s-2.26,1.98-2.26,1.98c-.16,.14-.41,.13-.55-.04-.14-.16-.12-.41,.04-.55Z"/>
        <path class="cls-8" d="M370.71,103.28l2.21-2.03c.16-.15,.41-.14,.56,.02,.15,.16,.14,.41-.02,.56h0s-2.22,2.03-2.22,2.03c-.16,.15-.41,.14-.56-.02-.15-.16-.13-.41,.03-.56Z"/>
        <path class="cls-8" d="M375.1,99.2l2.16-2.07c.16-.16,.41-.15,.57,0,.16,.16,.15,.41,0,.57h0s-2.17,2.08-2.17,2.08c-.16,.15-.41,.15-.57-.01-.15-.16-.14-.42,.02-.57Z"/>
        <path class="cls-8" d="M379.4,95.03l2.11-2.12c.16-.16,.42-.16,.58,0,.16,.16,.16,.42,0,.58h0s-2.12,2.13-2.12,2.13c-.16,.16-.41,.16-.57,0s-.16-.42,0-.58Z"/>
        <path class="cls-8" d="M383.61,90.77l2.07-2.17c.16-.17,.42-.17,.58-.02,.17,.16,.17,.42,.02,.58h0s-2.08,2.17-2.08,2.17c-.16,.16-.42,.17-.58,.01-.16-.16-.17-.42,0-.58Z"/>
        <path class="cls-8" d="M387.73,86.42l2.02-2.21c.15-.17,.42-.19,.59-.03,.17,.15,.19,.42,.03,.59h0s-2.03,2.21-2.03,2.21c-.16,.17-.42,.18-.59,.02s-.18-.42-.02-.59Z"/>
        <path class="cls-8" d="M391.75,81.98l1.98-2.25c.15-.18,.42-.2,.6-.04,.18,.15,.2,.42,.04,.6h0s-1.99,2.26-1.99,2.26c-.15,.17-.42,.19-.59,.04-.17-.15-.19-.42-.03-.6Z"/>
        <path class="cls-8" d="M395.69,77.46l1.93-2.29c.15-.18,.42-.21,.6-.06s.21,.42,.06,.6h0s-1.94,2.29-1.94,2.29c-.15,.18-.42,.2-.6,.05s-.2-.42-.05-.6Z"/>
        <path class="cls-8" d="M399.53,72.87l1.89-2.33c.15-.19,.42-.22,.61-.07,.19,.15,.22,.42,.07,.61h0s-1.9,2.33-1.9,2.33c-.15,.18-.42,.21-.6,.06-.18-.15-.21-.42-.06-.61Z"/>
        <path class="cls-8" d="M403.29,68.2l1.84-2.36c.15-.19,.42-.23,.61-.08s.23,.42,.08,.61h0s-1.85,2.37-1.85,2.37c-.15,.19-.42,.22-.61,.07-.19-.15-.22-.42-.07-.61Z"/>
        <path class="cls-8" d="M406.95,63.46l1.8-2.39c.14-.2,.42-.24,.62-.09,.2,.14,.24,.42,.09,.62h0s-1.81,2.4-1.81,2.4c-.15,.19-.42,.23-.62,.09-.19-.15-.23-.42-.08-.62Z"/>
        <path class="cls-8" d="M410.53,58.66l1.76-2.43c.14-.2,.42-.25,.62-.11s.25,.42,.11,.62h0s-1.77,2.43-1.77,2.43c-.14,.2-.42,.24-.62,.1-.2-.14-.24-.42-.1-.62Z"/>
        <path class="cls-8" d="M414.03,53.79l1.72-2.46c.14-.21,.42-.26,.63-.12,.21,.14,.26,.42,.12,.63h0s-1.72,2.46-1.72,2.46c-.14,.2-.42,.25-.63,.11-.2-.14-.25-.43-.11-.63Z"/>
        <path class="cls-8" d="M417.44,48.86l1.67-2.48c.14-.21,.42-.27,.63-.13s.27,.42,.13,.63h0s-1.68,2.49-1.68,2.49c-.14,.21-.42,.26-.63,.12s-.26-.43-.12-.63Z"/>
        <path class="cls-8" d="M420.76,43.88l1.63-2.51c.14-.21,.42-.28,.64-.14,.21,.14,.28,.42,.14,.64h0s-1.64,2.52-1.64,2.52c-.14,.21-.42,.27-.64,.13-.21-.14-.27-.43-.13-.64Z"/>
        <path class="cls-8" d="M424.01,38.84l1.59-2.54c.14-.22,.42-.29,.64-.15,.22,.14,.29,.42,.15,.64h0s-1.6,2.55-1.6,2.55c-.14,.22-.42,.28-.64,.15s-.28-.43-.14-.64Z"/>
        <path class="cls-8" d="M427.17,33.75l1.55-2.56c.13-.22,.42-.3,.65-.16,.22,.13,.3,.42,.16,.65h0s-1.56,2.57-1.56,2.57c-.13,.22-.42,.29-.64,.16s-.29-.43-.16-.65Z"/>
        <path class="cls-8" d="M430.26,28.62l1.51-2.59c.13-.23,.42-.31,.65-.18,.23,.13,.31,.42,.18,.65h0s-1.52,2.59-1.52,2.59c-.13,.23-.42,.3-.65,.17s-.3-.43-.17-.65Z"/>
        <path class="cls-8" d="M433.26,23.43l1.48-2.61c.13-.23,.42-.32,.65-.19s.32,.42,.19,.65h0s-1.48,2.62-1.48,2.62c-.13,.23-.42,.31-.65,.18-.23-.13-.31-.43-.18-.65Z"/>
        <path class="cls-8" d="M436.2,18.21l1.44-2.63c.13-.24,.42-.32,.66-.2,.24,.13,.32,.42,.2,.66h0s-1.45,2.64-1.45,2.64c-.13,.23-.42,.32-.66,.19-.23-.13-.32-.42-.19-.66Z"/>
        <path class="cls-8" d="M439.05,12.94l1.4-2.65c.13-.24,.42-.33,.66-.21s.33,.42,.21,.66h0s-1.41,2.66-1.41,2.66c-.13,.24-.42,.33-.66,.2-.24-.13-.33-.42-.2-.66Z"/>
        <path class="cls-8" d="M441.84,7.63l1.37-2.67c.12-.24,.42-.34,.67-.22s.34,.42,.22,.67h0s-1.37,2.67-1.37,2.67c-.12,.24-.42,.34-.66,.21-.24-.12-.34-.42-.21-.67Z"/>
        <path class="cls-8" d="M444.55,2.29l1-2.01c.12-.25,.42-.35,.67-.23,.25,.12,.35,.42,.23,.67h0s-1,2.02-1,2.02c-.12,.25-.42,.35-.67,.22-.25-.12-.35-.42-.22-.67Z"/>
      </g>
      <g>
        <g>
          <path class="cls-1" d="M31.25,124.81c-3.38,0-4.58-2.12-4.58-4.11v-43.72c0-2.29,1.4-3.77,3.56-3.77h24.34c3.43,0,3.43,5.22,3.43,8.02s0,8.02-3.43,8.02h-10.58v2.87h6.77c3.29,0,3.29,4.74,3.29,6.76,0,1.07-.11,2.27-.33,3.68-.5,3.16-2.15,3.63-3.1,3.63h-6.64v2.8h10.51c1.93,0,3.12,1.59,3.55,4.72,.15,.92,.22,1.95,.22,3.02s-.14,2.45-.44,4.12c-.58,3.28-2.13,3.96-3.33,3.96H31.25Z"/>
          <path class="cls-10" d="M54.58,75.21c.95,0,1.43,2.01,1.43,6.02s-.48,6.02-1.43,6.02h-12.58v6.87h8.77c.86,0,1.29,1.59,1.29,4.76,0,.95-.1,2.07-.31,3.37-.2,1.29-.58,1.94-1.12,1.94h-8.64v6.8h12.51c.77,0,1.29,1,1.56,2.99,.14,.86,.2,1.78,.2,2.75s-.14,2.23-.41,3.77-.73,2.31-1.36,2.31H31.25c-1.72,0-2.58-.7-2.58-2.11v-43.72c0-1.18,.52-1.77,1.56-1.77h24.34m0-4H30.23c-3.28,0-5.56,2.37-5.56,5.77v43.72c0,3.04,2.04,6.11,6.58,6.11h23.26c1.3,0,4.4-.55,5.3-5.62,.32-1.79,.47-3.25,.47-4.47s-.08-2.28-.25-3.34c-.77-5.58-3.79-6.41-5.52-6.41h-.76c.86-.78,1.63-2.04,1.96-4.11,.24-1.51,.35-2.82,.35-3.99,0-1.99-.15-3.45-.46-4.62-.37-1.38-1.03-2.35-1.79-3.01h.77c.91,0,3.95-.33,4.96-4.58,.31-1.32,.47-3.1,.47-5.44s-.15-4.12-.47-5.44c-1.01-4.25-4.05-4.58-4.96-4.58h0Z"/>
        </g>
        <g>
          <path class="cls-1" d="M94.15,124.94c-3.48,0-7.58-.39-8.33-3.42l-1.86-7.26h-7.67l-1.61,6.89c-.7,3.65-6.35,3.65-8.48,3.65-2.36,0-4.09-.14-5.29-.43-1.31-.31-3.1-.74-3.1-2.52v-.26l12.05-46.08c.17-2.17,2.36-2.25,11.3-2.25s11.14,.08,11.31,2.25l11.77,46.14v.25c0,2.31-2.75,2.55-4.96,2.74-2.18,.19-3.86,.28-5.14,.28Zm-13.09-23.31l-.94-4.33-1.13,4.33h2.07Z"/>
          <path class="cls-10" d="M81.17,75.27c6.21,0,9.32,.18,9.32,.54l11.76,46.1c0,.32-1.04,.57-3.13,.75-2.09,.18-3.74,.27-4.96,.27-3.94,0-6.08-.63-6.39-1.9l-2.24-8.77h-10.81l-1.97,8.43c-.27,1.41-2.45,2.11-6.53,2.11-2.18,0-3.79-.12-4.83-.37-1.04-.25-1.56-.44-1.56-.58l12.04-46.04c0-.36,3.1-.54,9.32-.54m-4.76,28.36h7.14l-3.06-14.08h-.41l-3.67,14.08m4.76-32.36c-3.21,0-5.58,.05-7.22,.14-.95,.06-1.65,.13-2.2,.22-2.59,.45-3.46,2.08-3.75,3.17h-.01s-12.04,46.03-12.04,46.03l-.13,.5v.51c0,3.37,3.37,4.17,4.64,4.47,1.37,.33,3.2,.48,5.75,.48,2.32,0,9.34,0,10.44-5.25l1.24-5.29h4.53l1.47,5.76c1.23,4.91,7.79,4.91,10.27,4.91,1.34,0,3.07-.09,5.31-.29,2.2-.19,6.78-.59,6.78-4.73v-.5l-.12-.49-11.76-46.1h-.01c-.28-1.09-1.15-2.73-3.75-3.19-.55-.1-1.25-.17-2.2-.22-1.65-.1-4.01-.14-7.22-.14h0Z"/>
        </g>
        <g>
          <path class="cls-1" d="M120.88,125.49c-2.83,0-5.45-.24-7.78-.72-2.5-.51-4.72-1.54-6.6-3.05-2.09-1.68-3.19-3.87-3.19-6.32,0-2.09,.39-4.19,1.14-6.24,.83-2.25,1.73-3.69,2.84-4.53l1.23-.94,1.22,.96c.77,.61,2.18,1.49,4.19,2.61,1.79,1,3.5,1.51,5.08,1.51,.52,0,.78-.07,.88-.11,0-.03,0-.07,0-.13,0-.07,0-.17-.2-.36-.17-.17-.76-.64-2.46-1.43-1.46-.69-2.59-1.24-3.35-1.64-.81-.43-1.84-1.11-3.14-2.06-1.38-1.02-2.47-2.11-3.23-3.25-2.02-2.88-3.06-6.58-3.06-10.97s1.71-8.44,5.1-11.57c3.34-3.08,7.72-4.64,13.02-4.64,3.41,0,6.62,.38,9.54,1.12,2.38,.61,5.56,1.73,5.79,4.53v.16s0,.41,0,.41c0,1.87-.54,4.08-1.65,6.78-1.45,3.54-2.12,4.47-2.85,4.95l-.98,.65-1.04-.54c-2.6-1.34-4.91-2.02-6.87-2.02-1.04,0-1.37,.21-1.42,.24,0,0-.01,.07-.01,.19,0,0,0,0,0,0,.03,0,.3,.36,1.35,.85,.41,.21,.92,.45,1.57,.75,.69,.32,1.48,.7,2.38,1.14,.95,.46,1.98,1.05,3.06,1.75,1.11,.71,2.31,1.67,3.57,2.83,2.82,2.67,4.25,6.18,4.25,10.45,0,5.32-1.51,9.77-4.5,13.21-3.05,3.52-7.71,5.35-13.85,5.45h-.03Z"/>
          <path class="cls-10" d="M122.58,74.59c3.26,0,6.28,.35,9.04,1.05,2.76,.7,4.19,1.62,4.28,2.75v.41c0,1.59-.5,3.59-1.5,6.02-1,2.43-1.7,3.77-2.11,4.04-2.9-1.5-5.5-2.24-7.79-2.24s-3.43,.82-3.43,2.45c0,1,.84,1.88,2.52,2.65,.36,.18,.88,.43,1.56,.75,.68,.32,1.46,.69,2.35,1.12,.88,.43,1.84,.98,2.86,1.63,1.02,.66,2.12,1.53,3.3,2.62,2.4,2.27,3.6,5.26,3.6,8.98,0,4.85-1.34,8.82-4.01,11.9-2.68,3.08-6.8,4.67-12.38,4.76-2.72,0-5.18-.23-7.38-.68-2.2-.45-4.11-1.34-5.75-2.65s-2.45-2.9-2.45-4.76,.34-3.71,1.02-5.54c.68-1.84,1.4-3.05,2.18-3.64,.86,.68,2.35,1.61,4.45,2.79,2.11,1.18,4.12,1.77,6.05,1.77s2.89-.75,2.89-2.24c0-.68-.27-1.28-.82-1.8-.54-.52-1.54-1.12-2.99-1.8-1.45-.68-2.54-1.21-3.26-1.6-.73-.38-1.69-1.02-2.89-1.9-1.2-.88-2.12-1.8-2.75-2.75-1.81-2.58-2.72-5.87-2.72-9.86s1.48-7.35,4.45-10.1c2.97-2.74,6.86-4.11,11.66-4.11m0-4c-5.82,0-10.66,1.74-14.38,5.17-3.81,3.52-5.74,7.91-5.74,13.04,0,4.79,1.15,8.87,3.42,12.12,.32,.48,.69,.95,1.11,1.41l-.91,.7c-1.42,1.08-2.53,2.81-3.5,5.43-.84,2.27-1.27,4.6-1.27,6.93,0,3.08,1.36,5.8,3.94,7.88,2.13,1.71,4.63,2.88,7.45,3.45,2.46,.51,5.21,.76,8.18,.76h.07c6.73-.11,11.89-2.18,15.33-6.14,3.31-3.82,4.99-8.7,4.99-14.52,0-4.84-1.63-8.84-4.86-11.89-.94-.87-1.82-1.6-2.66-2.23l.77-.51c1.25-.83,2.09-2.2,3.59-5.85,1.21-2.94,1.8-5.41,1.8-7.54v-.73c-.38-4.55-5.59-5.87-7.3-6.31-3.08-.78-6.45-1.18-10.03-1.18h0Z"/>
        </g>
        <g>
          <path class="cls-1" d="M160.72,124.94c-1.29,0-2.59-.07-3.89-.21-1.53-.2-5.52-.7-5.52-3.69v-15.7l-14.38-28.22c-.32-.59-.35-1.29-.07-1.9,.54-1.17,1.73-1.5,4.37-1.82,2.12-.26,3.94-.39,5.41-.39,6.78,0,10.2,1.18,11.08,3.81l3.2,8.94,3.73-9.06c.92-2.48,4.18-3.62,10.55-3.62,1.37,0,3.01,.09,4.86,.28,2.31,.24,3.44,.52,4.03,1.59,.34,.61,.35,1.35,.04,1.97l-13.93,28v16.12c0,2.92-3.99,3.43-5.49,3.62-1.34,.19-2.69,.29-3.99,.29Z"/>
          <path class="cls-10" d="M146.65,75c5.58,0,8.64,.82,9.18,2.45l4.96,13.87,5.71-13.87c.59-1.59,3.49-2.38,8.7-2.38,1.31,0,2.87,.09,4.66,.27,1.79,.18,2.62,.41,2.48,.68l-14.14,28.42v16.59c0,.77-1.25,1.32-3.74,1.63-1.27,.18-2.52,.27-3.74,.27s-2.45-.07-3.67-.2c-2.49-.32-3.74-.88-3.74-1.7v-16.18l-14.62-28.7c-.18-.27,.75-.53,2.79-.78,2.04-.25,3.76-.37,5.17-.37m0-4c-1.58,0-3.42,.13-5.65,.4-2.28,.28-4.86,.6-5.95,2.97-.55,1.19-.5,2.54,.12,3.68l14.14,27.76v15.22c0,3.15,2.43,5.06,7.23,5.67h.03s.03,0,.03,0c1.37,.15,2.75,.23,4.11,.23s2.82-.1,4.27-.31c4.78-.61,7.21-2.5,7.21-5.6v-15.65l13.73-27.58c.6-1.21,.58-2.64-.08-3.82-1.19-2.17-3.63-2.42-5.58-2.62-1.92-.19-3.62-.29-5.06-.29-4.91,0-10.74,.56-12.42,4.9l-1.73,4.21-1.45-4.05c-1.55-4.52-7.42-5.13-12.96-5.13h0Z"/>
        </g>
        <g>
          <path class="cls-1" d="M203.84,125.49c-6.54,0-12-2.35-16.23-6.97-4.18-4.58-6.3-11.04-6.3-19.2s2.18-14.71,6.47-19.46c4.34-4.81,9.84-7.26,16.34-7.26,3.53,0,6.7,.51,9.43,1.52,4.2,1.55,5.08,3.93,5.08,5.65,0,1.93-.66,4.15-2.02,6.8-1.17,2.27-2.65,4.59-4.8,4.59-.69,0-1.37-.27-2.02-.8-.08-.04-.42-.21-1.34-.46-.88-.24-1.63-.37-2.22-.37-2.04,0-3.62,.69-4.85,2.1-1.28,1.48-1.93,3.91-1.93,7.23s.66,5.73,1.98,7.2c1.27,1.43,2.84,2.12,4.8,2.12,.89,0,1.92-.13,3.06-.39,1.28-.29,1.69-.63,1.78-.72,.48-.48,1.14-.72,1.96-.72,1.19,0,2.05,.86,3.14,2.35,.86,1.17,1.62,2.64,2.33,4.48,.73,1.91,1.08,3.4,1.08,4.56,0,1.84-.93,4.38-5.36,6.08-2.94,1.13-6.43,1.7-10.37,1.7Z"/>
          <path class="cls-10" d="M204.11,74.59c3.31,0,6.22,.46,8.74,1.39s3.77,2.19,3.77,3.77-.6,3.55-1.8,5.88c-1.2,2.33-2.21,3.5-3.03,3.5-.23,0-.49-.12-.78-.37-.3-.25-.98-.52-2.04-.82-1.07-.29-1.98-.44-2.75-.44-2.63,0-4.75,.93-6.36,2.79-1.61,1.86-2.41,4.7-2.41,8.53s.83,6.68,2.48,8.53c1.65,1.86,3.75,2.79,6.29,2.79,1.04,0,2.21-.15,3.5-.44,1.29-.29,2.21-.71,2.75-1.26,.09-.09,.27-.13,.54-.13s.78,.51,1.53,1.53,1.44,2.36,2.07,4.01c.63,1.66,.95,2.94,.95,3.84,0,1.77-1.36,3.17-4.08,4.22-2.72,1.04-5.94,1.56-9.66,1.56-5.98,0-10.9-2.11-14.76-6.32-3.85-4.22-5.78-10.17-5.78-17.85s1.98-13.72,5.95-18.12c3.97-4.4,8.92-6.6,14.86-6.6m0-4c-7.09,0-13.09,2.66-17.83,7.92-4.63,5.13-6.98,12.13-6.98,20.8s2.3,15.59,6.83,20.55c4.63,5.06,10.58,7.63,17.71,7.63,4.19,0,7.92-.62,11.09-1.83,5.79-2.22,6.65-5.93,6.65-7.95,0-1.43-.39-3.1-1.22-5.27-.77-2.01-1.62-3.63-2.58-4.95-.87-1.18-2.32-3.16-4.76-3.16-1.61,0-2.65,.63-3.26,1.2-.1,.05-.37,.17-.92,.29-.99,.23-1.87,.34-2.61,.34-1.39,0-2.41-.45-3.3-1.45-.96-1.08-1.47-3.11-1.47-5.87s.5-4.83,1.44-5.92c.84-.97,1.87-1.41,3.33-1.41,.23,0,.75,.04,1.69,.3,.44,.12,.69,.21,.83,.26,1.17,.88,2.3,1.07,3.06,1.07,3.23,0,5.14-2.87,6.58-5.67,1.51-2.94,2.25-5.46,2.25-7.71,0-1.93-.83-5.47-6.39-7.53-2.95-1.09-6.36-1.64-10.12-1.64h0Z"/>
        </g>
        <g>
          <path class="cls-1" d="M248.24,125.21c-3.07,0-4.74-1.51-5.6-2.78l-.11-.16-4.74-11.04v10.62c0,2.86-3.67,3.09-8.46,3.09s-8.53-.22-8.53-3.02v-44.34c0-2.7,1.73-4.38,4.52-4.38h12.99c16.43,0,19.88,8.67,19.88,15.94,0,3.1-.61,5.96-1.83,8.51-.95,2-2.23,3.71-3.8,5.1l8.13,13.55-.29,.87c-.51,1.54-1.87,3.05-4.28,4.74-3.08,2.21-5.67,3.29-7.88,3.29Zm-10.44-29.89c2.55-.42,2.8-1.88,2.8-3.25,0-1.05-.21-1.79-.63-2.19-.22-.21-.79-.55-2.17-.63v6.07Z"/>
          <path class="cls-10" d="M238.31,75.21c11.92,0,17.88,4.65,17.88,13.94,0,2.81-.54,5.36-1.63,7.65-1.09,2.29-2.63,4.11-4.62,5.47l8.57,14.28c-.36,1.09-1.54,2.33-3.54,3.74-2.72,1.95-4.96,2.92-6.73,2.92s-3.08-.63-3.94-1.9l-6.39-14.89h-2.11v15.44c0,.73-2.15,1.09-6.46,1.09s-6.53-.34-6.53-1.02v-44.34c0-1.59,.84-2.38,2.52-2.38h12.99m-2.52,22.24h.34c4.31,0,6.46-1.79,6.46-5.37,0-1.63-.42-2.84-1.26-3.64-.84-.79-2.21-1.19-4.11-1.19h-1.43v10.2m2.52-26.24h-12.99c-3.9,0-6.52,2.56-6.52,6.38v44.34c0,1.18,.49,4.01,5.01,4.72,1.3,.2,3.11,.3,5.51,.3s4.2-.11,5.51-.33c4.47-.75,4.95-3.58,4.95-4.76v-.89l.82,1.92,.15,.35,.21,.32c1.6,2.36,4.18,3.66,7.26,3.66,2.65,0,5.61-1.2,9.06-3.67,2.75-1.93,4.34-3.76,5-5.72l.58-1.75-.95-1.58-6.84-11.41c1.23-1.33,2.27-2.85,3.08-4.57,1.34-2.82,2.02-5.97,2.02-9.37,0-6.7-2.84-17.94-21.88-17.94h0Z"/>
        </g>
        <g>
          <path class="cls-1" d="M265.51,124.81c-3.38,0-4.58-2.12-4.58-4.11v-43.72c0-2.29,1.4-3.77,3.56-3.77h24.34c3.43,0,3.43,5.22,3.43,8.02s0,8.02-3.43,8.02h-10.58v2.87h6.77c3.29,0,3.29,4.74,3.29,6.76,0,1.07-.11,2.27-.33,3.68-.5,3.16-2.15,3.63-3.1,3.63h-6.64v2.8h10.51c1.93,0,3.12,1.59,3.55,4.72,.15,.92,.22,1.95,.22,3.02s-.14,2.45-.44,4.12c-.58,3.28-2.13,3.96-3.33,3.96h-23.26Z"/>
          <path class="cls-10" d="M288.83,75.21c.95,0,1.43,2.01,1.43,6.02s-.48,6.02-1.43,6.02h-12.58v6.87h8.77c.86,0,1.29,1.59,1.29,4.76,0,.95-.1,2.07-.31,3.37-.2,1.29-.58,1.94-1.12,1.94h-8.64v6.8h12.51c.77,0,1.29,1,1.56,2.99,.14,.86,.2,1.78,.2,2.75s-.14,2.23-.41,3.77-.73,2.31-1.36,2.31h-23.26c-1.72,0-2.58-.7-2.58-2.11v-43.72c0-1.18,.52-1.77,1.56-1.77h24.34m0-4h-24.34c-3.28,0-5.56,2.37-5.56,5.77v43.72c0,3.04,2.04,6.11,6.58,6.11h23.26c1.3,0,4.4-.55,5.3-5.62,.32-1.79,.47-3.25,.47-4.47s-.08-2.28-.25-3.34c-.77-5.58-3.79-6.41-5.52-6.41h-.76c.86-.78,1.63-2.04,1.96-4.11,.24-1.51,.35-2.82,.35-3.99,0-1.99-.15-3.45-.46-4.62-.37-1.38-1.03-2.35-1.79-3.01h.77c.91,0,3.95-.33,4.96-4.58,.31-1.32,.47-3.1,.47-5.44s-.15-4.12-.47-5.44c-1.01-4.25-4.05-4.58-4.96-4.58h0Z"/>
        </g>
        <g>
          <path class="cls-1" d="M328.41,124.94c-3.48,0-7.58-.39-8.33-3.42l-1.86-7.26h-7.67l-1.61,6.89c-.7,3.65-6.35,3.65-8.48,3.65-2.36,0-4.09-.14-5.29-.43-1.31-.31-3.1-.74-3.1-2.52v-.26l12.05-46.08c.17-2.17,2.36-2.25,11.3-2.25s11.14,.08,11.31,2.25l11.77,46.14v.25c0,2.31-2.75,2.55-4.96,2.74-2.18,.19-3.86,.28-5.14,.28Zm-13.09-23.31l-.94-4.33-1.13,4.33h2.07Z"/>
          <path class="cls-10" d="M315.42,75.27c6.21,0,9.32,.18,9.32,.54l11.76,46.1c0,.32-1.04,.57-3.13,.75-2.09,.18-3.74,.27-4.96,.27-3.94,0-6.08-.63-6.39-1.9l-2.24-8.77h-10.81l-1.97,8.43c-.27,1.41-2.45,2.11-6.53,2.11-2.18,0-3.79-.12-4.83-.37-1.04-.25-1.56-.44-1.56-.58l12.04-46.04c0-.36,3.1-.54,9.32-.54m-4.76,28.36h7.14l-3.06-14.08h-.41l-3.67,14.08m4.76-32.36c-3.21,0-5.58,.05-7.22,.14-.95,.06-1.65,.13-2.2,.22-2.59,.45-3.46,2.08-3.75,3.17h-.01s-12.04,46.03-12.04,46.03l-.13,.5v.51c0,3.37,3.37,4.17,4.64,4.47,1.37,.33,3.2,.48,5.75,.48,2.32,0,9.34,0,10.44-5.25l1.24-5.29h4.53l1.47,5.76c1.23,4.91,7.79,4.91,10.27,4.91,1.34,0,3.07-.09,5.31-.29,2.2-.19,6.78-.59,6.78-4.73v-.5l-.12-.49-11.76-46.1h-.01c-.28-1.09-1.15-2.73-3.75-3.19-.55-.1-1.25-.17-2.2-.22-1.65-.1-4.01-.14-7.22-.14h0Z"/>
        </g>
      </g>
      <g id="Calque_9_-_copie" data-name="Calque 9 - copie">
        <rect class="cls-7" x="415.7" y="104.56" width="42.52" height="64.9" rx="7.69" ry="7.69" transform="translate(122.46 -195.85) rotate(29.22)"/>
        <rect class="cls-7" x="355.43" y="107.71" width="30.2" height="46.1" rx="7.05" ry="7.05" transform="translate(763.33 140.64) rotate(162)"/>
        <rect class="cls-7" x="368.36" y="16.51" width="54.18" height="82.7" rx="7.69" ry="7.69" transform="translate(7.03 -36.25) rotate(5.3)"/>
        <g>
          <rect class="cls-4" x="377.68" y="26.9" width="78.89" height="120.4" rx="7.69" ry="7.69" transform="translate(36.76 -104.99) rotate(15)"/>
          <g class="cls-9">
            <rect class="cls-6" x="415.7" y="104.56" width="42.52" height="64.9" rx="7.69" ry="7.69" transform="translate(122.46 -195.85) rotate(29.22)"/>
            <rect class="cls-6" x="355.43" y="107.71" width="30.2" height="46.1" rx="7.05" ry="7.05" transform="translate(763.33 140.64) rotate(162)"/>
            <rect class="cls-6" x="368.36" y="16.51" width="54.18" height="82.7" rx="7.69" ry="7.69" transform="translate(7.03 -36.25) rotate(5.3)"/>
          </g>
          <rect class="cls-7" x="377.68" y="26.9" width="78.89" height="120.4" rx="7.69" ry="7.69" transform="translate(36.76 -104.99) rotate(15)"/>
        </g>
      </g>
      <g id="Calque_9" data-name="Calque 9">
        <path class="cls-12" d="M437.21,102.3h0c1.1,0,2.19,.29,3.15,.83l23.68,13.24c1.51,.84,2.6,2.23,3.07,3.89,.47,1.66,.26,3.41-.58,4.92l-24.17,43.22c-1.14,2.05-3.31,3.32-5.66,3.32-1.1,0-2.19-.29-3.15-.83l-23.68-13.24c-1.51-.84-2.6-2.23-3.07-3.89-.47-1.66-.26-3.41,.58-4.92l24.17-43.22c1.14-2.05,3.31-3.32,5.66-3.32m0-1.22c-2.7,0-5.31,1.42-6.72,3.94l-24.17,43.22c-2.07,3.71-.75,8.4,2.96,10.47l23.68,13.24c1.19,.66,2.48,.98,3.75,.98,2.7,0,5.31-1.42,6.72-3.94l24.17-43.22c2.07-3.71,.75-8.4-2.96-10.47l-23.68-13.24c-1.19-.66-2.48-.98-3.75-.98h0Z"/>
        <path class="cls-11" d="M373.25,107.22h0c2.53,0,4.76,1.62,5.54,4.03l9.89,30.44c.99,3.06-.69,6.35-3.74,7.35l-15.32,4.98c-.59,.19-1.19,.29-1.8,.29-2.53,0-4.76-1.62-5.54-4.03l-9.89-30.44c-.99-3.06,.69-6.35,3.74-7.35l15.32-4.98c.59-.19,1.19-.29,1.8-.29m0-1.22c-.72,0-1.46,.11-2.18,.35l-15.32,4.98c-3.7,1.2-5.73,5.18-4.53,8.88l9.89,30.44c.97,2.98,3.73,4.87,6.7,4.87,.72,0,1.46-.11,2.18-.35l15.32-4.98c3.7-1.2,5.73-5.18,4.53-8.88l-9.89-30.44c-.97-2.98-3.73-4.87-6.7-4.87h0Z"/>
        <path class="cls-2" d="M379.23,14.87v1.22c.2,0,.4,0,.61,.03l38.63,3.58c1.72,.16,3.28,.98,4.38,2.31,1.1,1.33,1.63,3.01,1.47,4.73l-6.21,67.02c-.31,3.35-3.08,5.88-6.44,5.88-.2,0-.4,0-.61-.03l-38.63-3.58c-1.72-.16-3.28-.98-4.38-2.31-1.1-1.33-1.63-3.01-1.47-4.73l6.21-67.02c.31-3.35,3.08-5.88,6.44-5.88v-1.22m0,0c-3.93,0-7.28,2.99-7.65,6.98l-6.21,67.02c-.39,4.23,2.72,7.98,6.95,8.37l38.63,3.58c.24,.02,.48,.03,.72,.03,3.93,0,7.28-2.99,7.65-6.98l6.21-67.02c.39-4.23-2.72-7.98-6.95-8.37l-38.63-3.58c-.24-.02-.48-.03-.72-.03h0Z"/>
        <g>
          <rect class="cls-4" x="377.68" y="26.9" width="78.89" height="120.4" rx="7.69" ry="7.69" transform="translate(36.76 -104.99) rotate(15)"/>
          <g class="cls-3">
            <rect class="cls-8" x="415.7" y="104.56" width="42.52" height="64.9" rx="7.69" ry="7.69" transform="translate(122.46 -195.85) rotate(29.22)"/>
            <rect class="cls-8" x="355.43" y="107.71" width="30.2" height="46.1" rx="7.05" ry="7.05" transform="translate(763.33 140.64) rotate(162)"/>
            <rect class="cls-8" x="368.36" y="16.51" width="54.18" height="82.7" rx="7.69" ry="7.69" transform="translate(7.03 -36.25) rotate(5.3)"/>
          </g>
        </g>
      </g>
    </g>
  </g>
</svg>