<?xml version="1.0" encoding="UTF-8"?>
<svg id="Calque_2" data-name="Calque 2" xmlns="http://www.w3.org/2000/svg" viewBox="0 0 345.28 256.66">
  <defs>
    <style>
      .cls-1 {
        fill: #111;
      }
    </style>
  </defs>
  <g id="Calque_6_-_copie_6" data-name="Calque 6 - copie 6">
    <g>
      <path class="cls-1" d="M127.17,138.06c-4.81,5.12-16.05,17.09-16.53,17.6-6.67,13.67-13.33,27.33-20,41l7.94-27.66L16.76,256.66H161.87l-12.4-84.23c-2.13-14.48-10.5-26.86-22.3-34.37Z"/>
      <path class="cls-1" d="M209.05,119.94c-.55-.74-5.7-8.92-6.22-9.27,0,0-25-26-25-26-1.37-1.42-3.26-2.22-5.23-2.21-1.97,.01-3.85,.83-5.21,2.27-1.49,1.59-27.36,29.12-27.93,29.73q-.91,.96-6.47,13.37c-.2,.45-.62,1.38-.62,1.38l-6.12,.05s-11.21-4.6-17.29-5.49l-16.71-2.46,6.38-3.65-43.72-1.85L0,107.71l64.84-9.55,28.8,4.49-9-7,27.51-4.46c22.95-3.38,41.24-20.11,46.66-42.65l3.83-12.89,6,9-2.27-22.66L172.64,0l1.61,5.65,.39,8,2.82,3.26,9.01,31.62c5.42,22.54,23.71,39.27,46.66,42.65l33.64,4.95,20.87,7.5,18.63-1.69,39.01,5.75-53.44,7.87-37.2-7.93,16.32,11-34.65,5.1c-4.86,.72-9.56,2.04-14.03,3.96"/>
      <path class="cls-1" d="M293.57,217.78l-1.93,16.88-19.39-40.59-51.68-57.48-8.92-9.93,5.98,11.71,18.02,35.29-21.49-32.8c-9.7,7.61-16.45,18.77-18.34,31.58l-12.4,84.23h145.12l-34.96-38.88Z"/>
      <path class="cls-1" d="M169.65,247.66l-11.27-76.54c-1.64-11.15-6.45-21.44-13.7-29.76,.78-1.71,1.78-3.95,3.1-6.9,1.54-3.44,3.54-7.89,4.48-9.96,3.22-3.42,13.55-14.42,20.46-21.78l17.86,18.57,11.84,18.08c-8.31,8.67-13.73,19.7-15.51,31.75l-11.27,76.54h-5.99Z"/>
    </g>
  </g>
</svg>