<svg xmlns="http://www.w3.org/2000/svg" version="1.1" xmlns:xlink="http://www.w3.org/1999/xlink" xmlns:svgjs="http://svgjs.dev/svgjs" viewBox="0 0 800 800"><rect width="100%" height="100%" fill="hsl(238, 82%, 13%)"></rect><g fill="hsl(205, 69%, 50%)"><rect width="548" height="3" x="87" y="737.5" rx="1.5" transform="rotate(45, 361, 739)" opacity="0.20"></rect><rect width="119" height="3" x="-4.5" y="766.5" rx="1.5" transform="rotate(45, 55, 768)" opacity="0.92"></rect><rect width="336" height="3" x="564" y="318.5" rx="1.5" transform="rotate(45, 732, 320)" opacity="0.33"></rect><rect width="228" height="3" x="39" y="585.5" rx="1.5" transform="rotate(45, 153, 587)" opacity="0.25"></rect><rect width="191" height="3" x="542.5" y="55.5" rx="1.5" transform="rotate(45, 638, 57)" opacity="0.16"></rect><rect width="561" height="3" x="469.5" y="412.5" rx="1.5" transform="rotate(45, 750, 414)" opacity="0.23"></rect><rect width="79" height="3" x="593.5" y="372.5" rx="1.5" transform="rotate(45, 633, 374)" opacity="0.09"></rect><rect width="247" height="3" x="-0.5" y="238.5" rx="1.5" transform="rotate(45, 123, 240)" opacity="0.43"></rect><rect width="371" height="3" x="82.5" y="734.5" rx="1.5" transform="rotate(45, 268, 736)" opacity="0.31"></rect><rect width="166" height="3" x="676" y="78.5" rx="1.5" transform="rotate(45, 759, 80)" opacity="0.10"></rect><rect width="296" height="3" x="377" y="40.5" rx="1.5" transform="rotate(45, 525, 42)" opacity="0.38"></rect><rect width="702" height="3" x="102" y="498.5" rx="1.5" transform="rotate(45, 453, 500)" opacity="0.64"></rect><rect width="183" height="3" x="-55.5" y="216.5" rx="1.5" transform="rotate(45, 36, 218)" opacity="0.24"></rect><rect width="692" height="3" x="-264" y="440.5" rx="1.5" transform="rotate(45, 82, 442)" opacity="0.98"></rect><rect width="387" height="3" x="509.5" y="26.5" rx="1.5" transform="rotate(45, 703, 28)" opacity="0.13"></rect><rect width="197" height="3" x="421.5" y="558.5" rx="1.5" transform="rotate(45, 520, 560)" opacity="0.93"></rect><rect width="251" height="3" x="505.5" y="753.5" rx="1.5" transform="rotate(45, 631, 755)" opacity="0.98"></rect><rect width="129" height="3" x="356.5" y="223.5" rx="1.5" transform="rotate(45, 421, 225)" opacity="0.37"></rect><rect width="554" height="3" x="-32" y="467.5" rx="1.5" transform="rotate(45, 245, 469)" opacity="0.29"></rect><rect width="176" height="3" x="463" y="761.5" rx="1.5" transform="rotate(45, 551, 763)" opacity="0.93"></rect><rect width="53" height="3" x="615.5" y="264.5" rx="1.5" transform="rotate(45, 642, 266)" opacity="0.44"></rect><rect width="144" height="3" x="288" y="115.5" rx="1.5" transform="rotate(45, 360, 117)" opacity="0.46"></rect><rect width="253" height="3" x="517.5" y="174.5" rx="1.5" transform="rotate(45, 644, 176)" opacity="0.86"></rect><rect width="159" height="3" x="288.5" y="279.5" rx="1.5" transform="rotate(45, 368, 281)" opacity="0.99"></rect><rect width="576" height="3" x="56" y="623.5" rx="1.5" transform="rotate(45, 344, 625)" opacity="0.36"></rect><rect width="427" height="3" x="540.5" y="628.5" rx="1.5" transform="rotate(45, 754, 630)" opacity="0.91"></rect><rect width="448" height="3" x="23" y="261.5" rx="1.5" transform="rotate(45, 247, 263)" opacity="0.09"></rect><rect width="167" height="3" x="687.5" y="732.5" rx="1.5" transform="rotate(45, 771, 734)" opacity="0.93"></rect><rect width="324" height="3" x="278" y="682.5" rx="1.5" transform="rotate(45, 440, 684)" opacity="0.77"></rect><rect width="63" height="3" x="521.5" y="136.5" rx="1.5" transform="rotate(45, 553, 138)" opacity="0.52"></rect><rect width="657" height="3" x="-132.5" y="660.5" rx="1.5" transform="rotate(45, 196, 662)" opacity="0.48"></rect><rect width="200" height="3" x="-69" y="106.5" rx="1.5" transform="rotate(45, 31, 108)" opacity="0.26"></rect><rect width="433" height="3" x="506.5" y="169.5" rx="1.5" transform="rotate(45, 723, 171)" opacity="0.79"></rect><rect width="58" height="3" x="203" y="128.5" rx="1.5" transform="rotate(45, 232, 130)" opacity="0.54"></rect><rect width="192" height="3" x="500" y="577.5" rx="1.5" transform="rotate(45, 596, 579)" opacity="0.45"></rect><rect width="254" height="3" x="-67" y="32.5" rx="1.5" transform="rotate(45, 60, 34)" opacity="0.77"></rect><rect width="303" height="3" x="394.5" y="238.5" rx="1.5" transform="rotate(45, 546, 240)" opacity="0.85"></rect><rect width="47" height="3" x="235.5" y="575.5" rx="1.5" transform="rotate(45, 259, 577)" opacity="0.28"></rect><rect width="191" height="3" x="129.5" y="28.5" rx="1.5" transform="rotate(45, 225, 30)" opacity="0.37"></rect><rect width="409" height="3" x="250.5" y="761.5" rx="1.5" transform="rotate(45, 455, 763)" opacity="0.61"></rect><rect width="567" height="3" x="-101.5" y="192.5" rx="1.5" transform="rotate(45, 182, 194)" opacity="0.44"></rect><rect width="169" height="3" x="594.5" y="557.5" rx="1.5" transform="rotate(45, 679, 559)" opacity="0.25"></rect><rect width="30" height="3" x="636" y="495.5" rx="1.5" transform="rotate(45, 651, 497)" opacity="0.21"></rect><rect width="632" height="3" x="143" y="331.5" rx="1.5" transform="rotate(45, 459, 333)" opacity="0.78"></rect><rect width="125" height="3" x="85.5" y="43.5" rx="1.5" transform="rotate(45, 148, 45)" opacity="0.11"></rect><rect width="191" height="3" x="669.5" y="231.5" rx="1.5" transform="rotate(45, 765, 233)" opacity="0.32"></rect><rect width="475" height="3" x="516.5" y="518.5" rx="1.5" transform="rotate(45, 754, 520)" opacity="0.89"></rect><rect width="343" height="3" x="404.5" y="461.5" rx="1.5" transform="rotate(45, 576, 463)" opacity="0.24"></rect><rect width="410" height="3" x="511" y="764.5" rx="1.5" transform="rotate(45, 716, 766)" opacity="0.10"></rect><rect width="74" height="3" x="407" y="107.5" rx="1.5" transform="rotate(45, 444, 109)" opacity="0.59"></rect><rect width="322" height="3" x="-67" y="135.5" rx="1.5" transform="rotate(45, 94, 137)" opacity="0.27"></rect><rect width="331" height="3" x="424.5" y="520.5" rx="1.5" transform="rotate(45, 590, 522)" opacity="0.10"></rect><rect width="701" height="3" x="34.5" y="428.5" rx="1.5" transform="rotate(45, 385, 430)" opacity="0.74"></rect><rect width="191" height="3" x="357.5" y="605.5" rx="1.5" transform="rotate(45, 453, 607)" opacity="0.64"></rect><rect width="302" height="3" x="514" y="442.5" rx="1.5" transform="rotate(45, 665, 444)" opacity="0.13"></rect><rect width="64" height="3" x="501" y="683.5" rx="1.5" transform="rotate(45, 533, 685)" opacity="0.84"></rect><rect width="224" height="3" x="215" y="186.5" rx="1.5" transform="rotate(45, 327, 188)" opacity="0.86"></rect><rect width="63" height="3" x="453.5" y="177.5" rx="1.5" transform="rotate(45, 485, 179)" opacity="0.24"></rect><rect width="649" height="3" x="-253.5" y="647.5" rx="1.5" transform="rotate(45, 71, 649)" opacity="0.76"></rect><rect width="521" height="3" x="402.5" y="629.5" rx="1.5" transform="rotate(45, 663, 631)" opacity="0.95"></rect><rect width="307" height="3" x="461.5" y="111.5" rx="1.5" transform="rotate(45, 615, 113)" opacity="0.30"></rect><rect width="190" height="3" x="-46" y="538.5" rx="1.5" transform="rotate(45, 49, 540)" opacity="0.86"></rect><rect width="104" height="3" x="335" y="32.5" rx="1.5" transform="rotate(45, 387, 34)" opacity="0.30"></rect><rect width="154" height="3" x="434" y="429.5" rx="1.5" transform="rotate(45, 511, 431)" opacity="0.78"></rect><rect width="126" height="3" x="-31" y="704.5" rx="1.5" transform="rotate(45, 32, 706)" opacity="0.65"></rect><rect width="101" height="3" x="104.5" y="748.5" rx="1.5" transform="rotate(45, 155, 750)" opacity="0.74"></rect><rect width="246" height="3" x="32" y="112.5" rx="1.5" transform="rotate(45, 155, 114)" opacity="0.21"></rect><rect width="554" height="3" x="14" y="68.5" rx="1.5" transform="rotate(45, 291, 70)" opacity="0.70"></rect><rect width="471" height="3" x="98.5" y="341.5" rx="1.5" transform="rotate(45, 334, 343)" opacity="0.16"></rect><rect width="491" height="3" x="434.5" y="696.5" rx="1.5" transform="rotate(45, 680, 698)" opacity="0.79"></rect><rect width="73" height="3" x="318.5" y="522.5" rx="1.5" transform="rotate(45, 355, 524)" opacity="0.62"></rect><rect width="75" height="3" x="18.5" y="329.5" rx="1.5" transform="rotate(45, 56, 331)" opacity="0.35"></rect><rect width="787" height="3" x="-226.5" y="359.5" rx="1.5" transform="rotate(45, 167, 361)" opacity="0.80"></rect><rect width="152" height="3" x="512" y="647.5" rx="1.5" transform="rotate(45, 588, 649)" opacity="0.88"></rect><rect width="316" height="3" x="12" y="506.5" rx="1.5" transform="rotate(45, 170, 508)" opacity="0.18"></rect><rect width="188" height="3" x="181" y="394.5" rx="1.5" transform="rotate(45, 275, 396)" opacity="0.92"></rect><rect width="49" height="3" x="528.5" y="338.5" rx="1.5" transform="rotate(45, 553, 340)" opacity="0.77"></rect></g></svg>