<?xml version="1.0" encoding="UTF-8"?>
<svg id="Calque_2" data-name="Calque 2" xmlns="http://www.w3.org/2000/svg" viewBox="0 0 154.57 155.17">
  <defs>
    <style>
      .cls-1 {
        fill: #e6e6ed;
      }
    </style>
  </defs>
  <g id="Calque_1-2" data-name="Calque 1">
    <path class="cls-1" d="M0,.02c2.04,0,3.58,0,5.11,0,27.23,0,54.46-.02,81.7,.01,5.74,0,4.49-.69,8.22,3.88,18.94,23.26,37.9,46.52,56.84,69.79,.98,1.21,2.1,2.32,2.7,4.06-.85,1.15-1.72,2.43-2.69,3.63-19.16,23.54-38.34,47.06-57.51,70.59-.44,.54-.88,1.07-1.3,1.63-.78,1.04-1.75,1.63-3.09,1.56-.86-.04-1.73,0-2.6,0-27.58,0-55.16,0-82.74,0-1.04,0-2.08,.02-3.12-.04-.47-.03-1.17,.1-1.19-.64-.01-.46,.19-.99,.45-1.38,.48-.72,1.07-1.36,1.61-2.04,17.96-22.06,35.91-44.11,53.87-66.17,.99-1.21,2-2.4,2.96-3.63,3.19-4.13,3.52-3.11-.18-7.66C40.45,50.73,21.81,27.89,3.2,5.02,2.13,3.7,.81,2.54,0,.02Z"/>
  </g>
</svg>