<?xml version="1.0" encoding="UTF-8"?>
<svg id="Calque_2" data-name="Calque 2" xmlns="http://www.w3.org/2000/svg" viewBox="0 0 670.18 786.18">
  <defs>
    <style>
      .cls-1 {
        fill: #fefefe;
      }
    </style>
  </defs>
  <g id="Calque_1-2" data-name="Calque 1">
    <g>
      <path class="cls-1" d="M302.65,192.72c-8.77-55.33-17.46-110.16-26.24-165.55,6.97,2.54,13.38,4.81,19.74,7.21,49.69,18.79,96.83,42.8,142.44,69.92,58.55,34.82,113.97,74.14,166.9,116.95,20.96,16.96,41.3,34.68,61.92,52.07,1.05,.88,2.03,1.83,2.77,3.17-6.4-2.27-12.8-4.56-19.2-6.81-50.81-17.91-101.99-34.67-154.13-48.38-34.92-9.19-70.15-16.93-105.9-22.18-23.15-3.4-46.41-5.73-69.81-6.37-6.07-.17-12.14-.02-18.5-.02Z"/>
      <path class="cls-1" d="M230.4,13.66c-7.56,14.25-15.25,28.24-22.48,42.46-25.4,49.91-46.76,101.4-60.29,155.91-1.2,4.84-2.19,9.73-3.43,14.56-.26,1-.93,2.19-1.77,2.71-9.86,6.02-19.79,11.92-29.7,17.86-.21,.12-.44,.19-.88,.38C77.68,173.62,43.53,99.72,9.17,25.37c6.9-2.83,13.57-5.76,20.39-8.32C55.94,7.17,83.27,1.99,111.36,.47c40-2.15,79.16,3.2,117.87,12.77,.4,.1,.78,.28,1.17,.42Z"/>
      <path class="cls-1" d="M272.9,228.6c11.31,71.35,22.53,142.11,33.81,213.24-3.93-.74-7.64-1.43-11.34-2.14-24.04-4.6-48.28-7.71-72.7-9.42-8.38-.59-16.77-.93-25.15-1.52-.92-.07-2.21-.82-2.61-1.62-9.15-18.17-16.7-36.9-20.43-57.05-3.62-19.54-5.47-39.19-5.25-59.06,.2-18.59,2.08-37.02,5.01-55.37,.35-2.21,1.18-3.4,3.29-4.29,24.34-10.33,49.65-17.02,75.83-20.47,6.42-.85,12.85-1.51,19.55-2.29Z"/>
      <path class="cls-1" d="M155.7,428.23c-52.39,.81-104.01,6.31-155.7,16.43,2.63-5.33,4.97-10.18,7.41-14.97,13.18-25.92,27.91-50.91,45.12-74.39,20.41-27.82,43.76-52.78,71.63-73.3,.86-.63,1.74-1.24,2.87-2.03,2.53,5.55,4.98,10.88,7.37,16.24,.25,.56,.22,1.29,.19,1.93-2,44.19,3.74,87.15,20.54,128.33,.18,.45,.3,.93,.57,1.76Z"/>
      <path class="cls-1" d="M535.97,612.67c-19.35-3.17-38.77-5.96-58.03-9.6-34.35-6.49-68-15.66-100.79-27.87-4.36-1.62-8.71-3.28-12.99-5.09-.86-.36-1.82-1.47-1.97-2.36-4.19-25.85-8.29-51.72-12.39-77.58-.02-.15,.04-.32,.1-.81,73.52,23.54,136.7,62.58,186.35,122.26-.1,.35-.2,.71-.29,1.06Z"/>
      <path class="cls-1" d="M360.77,786.18c-36.74-79.5-73.48-159.01-110.42-238.93,7.87,5.38,15.18,10.57,22.69,15.47,17.73,11.55,36.36,21.47,55.6,30.24,1.61,.74,2.33,1.63,2.61,3.44,3.67,23.66,7.46,47.31,11.21,70.96,3.75,23.65,7.48,47.3,11.23,70.95,2.41,15.19,4.83,30.38,7.24,45.58,.11,.72,.18,1.44,.26,2.16-.14,.05-.29,.09-.43,.14Z"/>
      <path class="cls-1" d="M267.42,194.03c-28.53,2.57-56.16,7.98-83.52,17.42,14.47-53.52,36.23-103.46,62.2-151.88,7.09,44.73,14.18,89.46,21.31,134.46Z"/>
      <path class="cls-1" d="M323.83,551.71c-41.37-21.64-78.11-48.79-106.95-86.76,2.71,.17,4.87,.26,7.02,.44,29.05,2.4,57.83,6.6,86.26,13.07,1.78,.41,2.6,1.15,2.88,2.98,3.61,23.17,7.29,46.33,10.95,69.5,.02,.15-.07,.31-.17,.76Z"/>
    </g>
  </g>
</svg>